<svg width="9" height="11" viewBox="0 0 9 11" fill="none" xmlns="http://www.w3.org/2000/svg">
<path d="M5.30361 1.521C5.30361 1.22711 5.06537 0.988867 4.77148 0.988867C4.4776 0.988867 4.23936 1.22711 4.23936 1.521L5.30361 1.521ZM4.39521 10.8015C4.60302 11.0093 4.93995 11.0093 5.14776 10.8015L8.5342 7.41504C8.74201 7.20723 8.74201 6.8703 8.5342 6.66249C8.32639 6.45469 7.98947 6.45469 7.78166 6.66249L4.77148 9.67267L1.76131 6.66249C1.5535 6.45468 1.21658 6.45468 1.00877 6.66249C0.800957 6.8703 0.800957 7.20723 1.00877 7.41504L4.39521 10.8015ZM4.23936 1.521L4.23935 10.4252L5.30361 10.4252L5.30361 1.521L4.23936 1.521Z" fill="#5C5C5C"/>
</svg>
