<svg width="236" height="172" viewBox="0 0 236 172" fill="none" xmlns="http://www.w3.org/2000/svg">
<path d="M210.714 0.285645H25.2857C11.3208 0.285645 0 11.7983 0 25.9999V146C0 160.201 11.3208 171.714 25.2857 171.714H210.714C224.679 171.714 236 160.201 236 146V25.9999C236 11.7983 224.679 0.285645 210.714 0.285645ZM219.143 146C219.143 150.734 215.369 154.571 210.714 154.571H25.2857C20.6306 154.571 16.857 150.734 16.857 146V140.977L50.5714 106.691L78.3269 134.917C81.618 138.263 86.9537 138.263 90.2448 134.917L160.143 63.834L219.143 123.834V146H219.143ZM219.143 99.594L166.102 45.6543C162.811 42.3079 157.475 42.3079 154.184 45.6543L84.2858 116.737L56.5303 88.5107C53.2392 85.1643 47.9036 85.1643 44.6125 88.5107L16.857 116.737V25.9999C16.857 21.2659 20.6306 17.4283 25.2857 17.4283H210.714C215.369 17.4283 219.143 21.2659 219.143 25.9999V99.594H219.143Z" fill="white"/>
<path d="M75.857 34.5708C61.8921 34.5708 50.5713 46.0835 50.5713 60.2851C50.5713 74.4867 61.8921 85.9993 75.857 85.9993C89.8219 85.9993 101.143 74.4867 101.143 60.2851C101.143 46.0835 89.8219 34.5708 75.857 34.5708ZM75.857 68.8566C71.2019 68.8566 67.4283 65.0191 67.4283 60.2851C67.4283 55.551 71.2019 51.7135 75.857 51.7135C80.5121 51.7135 84.2857 55.551 84.2857 60.2851C84.2857 65.0191 80.5121 68.8566 75.857 68.8566Z" fill="white"/>
</svg>
