<svg width="1254" height="900" viewBox="0 0 1254 900" fill="none" xmlns="http://www.w3.org/2000/svg">
<g opacity="0.1">
<path d="M1006.18 785.635C1006.06 785.513 1005.9 785.439 1005.73 785.425C1005.56 785.41 1005.39 785.456 1005.25 785.555L999.297 789.757C999.201 789.825 999.123 789.914 999.07 790.019L997.568 792.944L977.108 813.404L976.391 812.688C976.212 812.508 975.999 812.366 975.765 812.269C975.531 812.172 975.28 812.122 975.026 812.122C974.773 812.122 974.522 812.172 974.288 812.269C974.054 812.366 973.841 812.508 973.662 812.688L973.4 812.949C973.063 813.286 972.863 813.736 972.837 814.212C972.812 814.688 972.964 815.156 973.264 815.527C973.192 816.729 972.664 817.859 971.788 818.685C970.912 819.512 969.753 819.973 968.549 819.974C968.518 819.974 968.487 819.976 968.456 819.98C967.16 820.077 965.942 820.637 965.023 821.556L953.179 833.4C952.675 833.905 952.274 834.504 952.001 835.163C951.728 835.822 951.588 836.528 951.588 837.241C951.588 837.955 951.728 838.661 952.001 839.32C952.274 839.979 952.675 840.578 953.179 841.082C953.644 841.557 954.199 841.934 954.811 842.192C955.424 842.45 956.081 842.584 956.746 842.585C958.126 842.585 959.532 842.016 960.663 840.885L972.507 829.04C973.428 828.12 973.987 826.9 974.083 825.602C974.087 825.573 974.089 825.544 974.089 825.514C974.089 822.886 975.959 820.73 978.31 820.573C978.681 820.871 979.149 821.022 979.624 820.996C980.099 820.97 980.548 820.77 980.884 820.434L981.146 820.172C981.507 819.81 981.71 819.319 981.71 818.807C981.71 818.295 981.507 817.805 981.146 817.442L980.429 816.726L1000.89 796.265L1003.82 794.764C1003.92 794.71 1004.01 794.632 1004.08 794.536L1008.28 788.581C1008.38 788.441 1008.42 788.271 1008.41 788.1C1008.39 787.93 1008.32 787.77 1008.2 787.649L1006.18 785.635ZM965.241 823.393C965.36 823.707 965.385 824.05 965.314 824.378C965.242 824.707 965.078 825.008 964.84 825.245L957.149 832.936C956.912 833.174 956.611 833.338 956.282 833.41C955.954 833.481 955.611 833.456 955.297 833.337L965.241 823.393ZM960.727 838.766C960.609 838.451 960.584 838.109 960.655 837.781C960.726 837.453 960.89 837.152 961.127 836.914L968.818 829.223C969.056 828.986 969.357 828.822 969.685 828.751C970.014 828.68 970.355 828.705 970.67 828.823L960.727 838.766ZM972.636 825.474C972.579 826.302 972.263 827.092 971.735 827.731C971.121 827.355 970.398 827.196 969.682 827.281C968.967 827.365 968.301 827.687 967.791 828.196L960.1 835.887C959.589 836.399 959.266 837.069 959.184 837.788C959.101 838.507 959.264 839.232 959.646 839.847L959.636 839.857C958.032 841.461 955.698 841.546 954.207 840.054C953.461 839.308 953.042 838.296 953.042 837.241C953.042 836.186 953.461 835.174 954.207 834.428L954.216 834.418C954.831 834.801 955.557 834.964 956.276 834.881C956.995 834.799 957.665 834.475 958.177 833.963L965.868 826.273C966.377 825.763 966.7 825.096 966.785 824.381C966.869 823.665 966.71 822.942 966.333 822.328C966.974 821.799 967.764 821.484 968.593 821.427C969.952 821.415 971.27 820.957 972.342 820.121C973.415 819.286 974.182 818.121 974.526 816.806L977.048 819.327C974.522 820.055 972.652 822.532 972.636 825.474ZM980.118 819.144L979.857 819.406C979.766 819.493 979.645 819.541 979.519 819.541C979.394 819.541 979.273 819.493 979.182 819.406L974.427 814.651C974.338 814.562 974.288 814.441 974.288 814.314C974.288 814.188 974.338 814.066 974.427 813.977L974.689 813.715C974.78 813.628 974.901 813.58 975.026 813.58C975.152 813.58 975.273 813.628 975.364 813.715L980.118 818.47C980.208 818.559 980.258 818.681 980.258 818.807C980.258 818.934 980.208 819.055 980.118 819.144ZM1002.99 793.553L1000.13 795.025C1000.06 795.059 999.997 795.104 999.944 795.158L979.402 815.699L978.135 814.432L998.676 793.89C998.73 793.837 998.775 793.776 998.81 793.709L1000.28 790.841L1005.59 787.095L1006.74 788.244L1002.99 793.553Z" fill="white"/>
</g>
<g opacity="0.1" clip-path="url(#clip0)">
<path d="M66.2162 353.937C67.3175 353.939 68.3742 353.502 69.1529 352.723C69.5445 352.317 69.5389 351.673 69.1403 351.274C68.7417 350.876 68.0972 350.87 67.6918 351.262C66.8769 352.076 65.5561 352.076 64.7415 351.261C63.9269 350.446 63.9269 349.126 64.7415 348.311C65.5561 347.496 66.8769 347.496 67.6918 348.31C68.0972 348.702 68.7417 348.696 69.1403 348.298C69.5389 347.899 69.5445 347.255 69.1529 346.849C67.8242 345.519 65.7675 345.247 64.139 346.187C62.5104 347.126 61.7162 349.043 62.203 350.859C62.6898 352.675 64.3359 353.938 66.2162 353.937Z" fill="white"/>
<path d="M72.8334 344.2C73.1075 344.2 73.3703 344.091 73.564 343.897L74.2987 343.162C74.6903 342.757 74.6847 342.112 74.2861 341.714C73.8875 341.315 73.243 341.31 72.8376 341.701L72.1029 342.436C71.8074 342.731 71.7191 343.176 71.879 343.562C72.0389 343.948 72.4156 344.2 72.8334 344.2Z" fill="white"/>
<path d="M76.5092 340.524C76.7833 340.524 77.046 340.415 77.2398 340.221L91.2094 326.252C91.601 325.846 91.5954 325.202 91.1968 324.803C90.7982 324.405 90.1537 324.399 89.7483 324.791L75.7787 338.76C75.4832 339.056 75.3948 339.5 75.5547 339.886C75.7147 340.272 76.0913 340.524 76.5092 340.524Z" fill="white"/>
<path d="M56.9996 349.863C56.9321 352.263 57.8384 354.588 59.5124 356.31C61.1863 358.031 63.4854 359.001 65.8863 359H66.1415C68.5925 358.942 70.9089 357.868 72.5358 356.033L99.9191 325.37C104.743 326.958 110.046 325.914 113.908 322.616C117.77 319.318 119.632 314.244 118.819 309.231C118.696 308.451 118.145 307.808 117.394 307.566C116.656 307.325 115.845 307.521 115.299 308.072L107.239 316.132C107.015 316.357 106.701 316.467 106.386 316.432L101.082 315.853C100.592 315.799 100.206 315.413 100.152 314.923L99.573 309.618C99.5384 309.303 99.6486 308.99 99.8726 308.766L107.933 300.706C108.482 300.159 108.678 299.349 108.439 298.611C108.196 297.86 107.552 297.31 106.772 297.188C101.759 296.375 96.685 298.237 93.387 302.099C90.0889 305.961 89.0448 311.264 90.6326 316.088L59.9684 343.47C58.1337 345.096 57.0582 347.412 56.9996 349.863ZM61.3396 345.007L92.5277 317.168C92.8481 316.881 92.9579 316.427 92.8036 316.026C91.1954 311.854 91.9456 307.139 94.7694 303.672C97.5932 300.205 102.058 298.516 106.469 299.247L98.4094 307.307C97.7408 307.973 97.4122 308.907 97.5166 309.846L98.0953 315.149C98.2467 316.604 99.3969 317.754 100.852 317.906L106.155 318.484C107.093 318.59 108.029 318.261 108.694 317.591L116.773 309.558C117.488 313.968 115.791 318.425 112.322 321.241C108.854 324.057 104.144 324.804 99.9749 323.198C99.574 323.044 99.1193 323.154 98.8331 323.474L70.9899 354.653C69.7388 356.052 67.967 356.875 66.0906 356.929C64.2142 356.982 62.3986 356.261 61.0699 354.935C59.7438 353.607 59.0226 351.791 59.0758 349.915C59.1289 348.038 59.9517 346.266 61.351 345.015L61.3396 345.007Z" fill="white"/>
</g>
<g opacity="0.1" clip-path="url(#clip1)">
<path d="M1008.22 622.937C1009.32 622.939 1010.37 622.502 1011.15 621.723C1011.54 621.317 1011.54 620.673 1011.14 620.274C1010.74 619.876 1010.1 619.87 1009.69 620.262C1008.88 621.076 1007.56 621.076 1006.74 620.261C1005.93 619.446 1005.93 618.126 1006.74 617.311C1007.56 616.496 1008.88 616.496 1009.69 617.31C1010.1 617.702 1010.74 617.696 1011.14 617.298C1011.54 616.899 1011.54 616.255 1011.15 615.849C1009.82 614.519 1007.77 614.247 1006.14 615.187C1004.51 616.126 1003.72 618.043 1004.2 619.859C1004.69 621.675 1006.34 622.938 1008.22 622.937Z" fill="white"/>
<path d="M1014.83 613.2C1015.11 613.2 1015.37 613.091 1015.56 612.897L1016.3 612.162C1016.69 611.757 1016.68 611.112 1016.29 610.714C1015.89 610.315 1015.24 610.31 1014.84 610.701L1014.1 611.436C1013.81 611.731 1013.72 612.176 1013.88 612.562C1014.04 612.948 1014.42 613.2 1014.83 613.2Z" fill="white"/>
<path d="M1018.51 609.524C1018.78 609.524 1019.05 609.415 1019.24 609.221L1033.21 595.252C1033.6 594.846 1033.6 594.202 1033.2 593.803C1032.8 593.405 1032.15 593.399 1031.75 593.791L1017.78 607.76C1017.48 608.056 1017.39 608.5 1017.55 608.886C1017.71 609.272 1018.09 609.524 1018.51 609.524Z" fill="white"/>
<path d="M999 618.863C998.932 621.263 999.838 623.588 1001.51 625.31C1003.19 627.031 1005.49 628.001 1007.89 628H1008.14C1010.59 627.942 1012.91 626.868 1014.54 625.033L1041.92 594.37C1046.74 595.958 1052.05 594.914 1055.91 591.616C1059.77 588.318 1061.63 583.244 1060.82 578.231C1060.7 577.451 1060.14 576.808 1059.39 576.566C1058.66 576.325 1057.85 576.521 1057.3 577.072L1049.24 585.132C1049.02 585.357 1048.7 585.467 1048.39 585.432L1043.08 584.853C1042.59 584.799 1042.21 584.413 1042.15 583.923L1041.57 578.618C1041.54 578.303 1041.65 577.99 1041.87 577.766L1049.93 569.706C1050.48 569.159 1050.68 568.349 1050.44 567.611C1050.2 566.86 1049.55 566.31 1048.77 566.188C1043.76 565.375 1038.69 567.237 1035.39 571.099C1032.09 574.961 1031.04 580.264 1032.63 585.088L1001.97 612.47C1000.13 614.096 999.058 616.412 999 618.863ZM1003.34 614.007L1034.53 586.168C1034.85 585.881 1034.96 585.427 1034.8 585.026C1033.2 580.854 1033.95 576.139 1036.77 572.672C1039.59 569.205 1044.06 567.516 1048.47 568.247L1040.41 576.307C1039.74 576.973 1039.41 577.907 1039.52 578.846L1040.1 584.149C1040.25 585.604 1041.4 586.754 1042.85 586.906L1048.16 587.484C1049.09 587.59 1050.03 587.261 1050.69 586.591L1058.77 578.558C1059.49 582.968 1057.79 587.425 1054.32 590.241C1050.85 593.057 1046.14 593.804 1041.97 592.198C1041.57 592.044 1041.12 592.154 1040.83 592.474L1012.99 623.653C1011.74 625.052 1009.97 625.875 1008.09 625.929C1006.21 625.982 1004.4 625.261 1003.07 623.935C1001.74 622.607 1001.02 620.791 1001.08 618.915C1001.13 617.038 1001.95 615.266 1003.35 614.015L1003.34 614.007Z" fill="white"/>
</g>
<g opacity="0.1" clip-path="url(#clip2)">
<path d="M470.621 145.92L465.455 140.754C465.212 140.516 464.884 140.377 464.54 140.377H463.249V139.085C463.249 138.741 463.114 138.413 462.871 138.17L452.538 127.837C450.464 125.766 446.995 122.294 439.999 122.294C433.006 122.294 429.8 125.497 427.46 127.837C427.093 128.207 426.982 128.765 427.181 129.248C427.38 129.728 427.853 130.044 428.375 130.044C438.793 130.044 439.999 134.466 439.999 137.793C439.999 141.813 436.654 144.499 436.618 144.525C436.597 144.543 436.587 144.569 436.566 144.587C436.545 144.605 436.522 144.611 436.504 144.629L410.953 170.177C409.695 171.435 409 173.112 409 175.041C409 178.717 411.989 181.706 415.665 181.706C417.538 181.706 419.336 180.911 420.599 179.526L444.745 152.967C448.227 150.376 451.699 148.798 452.916 148.904V150.71C452.916 151.053 453.053 151.381 453.293 151.624L459.751 158.082C459.994 158.32 460.322 158.459 460.665 158.459C460.681 158.459 460.694 158.459 460.709 158.459C461.066 158.449 461.402 158.289 461.637 158.02L470.678 147.687C471.128 147.173 471.104 146.403 470.621 145.92ZM418.685 177.787C417.912 178.64 416.812 179.126 415.665 179.126C413.415 179.126 411.583 177.292 411.583 174.889C411.583 173.799 412.007 172.773 412.779 172.004L437.416 147.367L442.092 152.043L418.685 177.787ZM460.603 155.277L455.499 150.172V148.126C455.499 147.783 455.362 147.455 455.122 147.212C452.683 144.773 447.075 148.134 444.008 150.307L439.271 145.569C440.567 144.197 442.582 141.472 442.582 137.793C442.582 131.746 438.865 128.328 431.518 127.605C433.404 126.101 435.887 124.877 439.999 124.877C445.925 124.877 448.803 127.757 450.709 129.664L460.665 139.617V141.668C460.665 142.381 461.244 142.96 461.957 142.96H464.006L467.94 146.894L460.603 155.277Z" fill="white"/>
</g>
<g opacity="0.1" clip-path="url(#clip3)">
<path d="M1253.62 777.92L1248.45 772.754C1248.21 772.516 1247.88 772.377 1247.54 772.377H1246.25V771.085C1246.25 770.741 1246.11 770.413 1245.87 770.17L1235.54 759.837C1233.46 757.766 1229.99 754.294 1223 754.294C1216.01 754.294 1212.8 757.497 1210.46 759.837C1210.09 760.207 1209.98 760.765 1210.18 761.248C1210.38 761.728 1210.85 762.044 1211.37 762.044C1221.79 762.044 1223 766.466 1223 769.793C1223 773.813 1219.65 776.499 1219.62 776.525C1219.6 776.543 1219.59 776.569 1219.57 776.587C1219.55 776.605 1219.52 776.611 1219.5 776.629L1193.95 802.177C1192.69 803.435 1192 805.112 1192 807.041C1192 810.717 1194.99 813.706 1198.66 813.706C1200.54 813.706 1202.34 812.911 1203.6 811.526L1227.74 784.967C1231.23 782.376 1234.7 780.798 1235.92 780.904V782.71C1235.92 783.053 1236.05 783.381 1236.29 783.624L1242.75 790.082C1242.99 790.32 1243.32 790.459 1243.67 790.459C1243.68 790.459 1243.69 790.459 1243.71 790.459C1244.07 790.449 1244.4 790.289 1244.64 790.02L1253.68 779.687C1254.13 779.173 1254.1 778.403 1253.62 777.92ZM1201.68 809.787C1200.91 810.64 1199.81 811.126 1198.66 811.126C1196.41 811.126 1194.58 809.292 1194.58 806.889C1194.58 805.799 1195.01 804.773 1195.78 804.004L1220.42 779.367L1225.09 784.043L1201.68 809.787ZM1243.6 787.277L1238.5 782.172V780.126C1238.5 779.783 1238.36 779.455 1238.12 779.212C1235.68 776.773 1230.07 780.134 1227.01 782.307L1222.27 777.569C1223.57 776.197 1225.58 773.472 1225.58 769.793C1225.58 763.746 1221.87 760.328 1214.52 759.605C1216.4 758.101 1218.89 756.877 1223 756.877C1228.93 756.877 1231.8 759.757 1233.71 761.664L1243.67 771.617V773.668C1243.67 774.381 1244.24 774.96 1244.96 774.96H1247.01L1250.94 778.894L1243.6 787.277Z" fill="white"/>
</g>
<g opacity="0.1" clip-path="url(#clip4)">
<path d="M805.621 784.92L800.455 779.754C800.212 779.516 799.884 779.377 799.54 779.377H798.249V778.085C798.249 777.741 798.114 777.413 797.871 777.17L787.538 766.837C785.464 764.766 781.995 761.294 774.999 761.294C768.006 761.294 764.8 764.497 762.46 766.837C762.093 767.207 761.982 767.765 762.181 768.248C762.38 768.728 762.853 769.044 763.375 769.044C773.793 769.044 774.999 773.466 774.999 776.793C774.999 780.813 771.654 783.499 771.618 783.525C771.597 783.543 771.587 783.569 771.566 783.587C771.545 783.605 771.522 783.611 771.504 783.629L745.953 809.177C744.695 810.435 744 812.112 744 814.041C744 817.717 746.989 820.706 750.665 820.706C752.538 820.706 754.336 819.911 755.599 818.526L779.745 791.967C783.227 789.376 786.699 787.798 787.916 787.904V789.71C787.916 790.053 788.053 790.381 788.293 790.624L794.751 797.082C794.994 797.32 795.322 797.459 795.665 797.459C795.681 797.459 795.694 797.459 795.709 797.459C796.066 797.449 796.402 797.289 796.637 797.02L805.678 786.687C806.128 786.173 806.104 785.403 805.621 784.92ZM753.685 816.787C752.912 817.64 751.812 818.126 750.665 818.126C748.415 818.126 746.583 816.292 746.583 813.889C746.583 812.799 747.007 811.773 747.779 811.004L772.416 786.367L777.092 791.043L753.685 816.787ZM795.603 794.277L790.499 789.172V787.126C790.499 786.783 790.362 786.455 790.122 786.212C787.683 783.773 782.075 787.134 779.008 789.307L774.271 784.569C775.567 783.197 777.582 780.472 777.582 776.793C777.582 770.746 773.865 767.328 766.518 766.605C768.404 765.101 770.887 763.877 774.999 763.877C780.925 763.877 783.803 766.757 785.709 768.664L795.665 778.617V780.668C795.665 781.381 796.244 781.96 796.957 781.96H799.006L802.94 785.894L795.603 794.277Z" fill="white"/>
</g>
<g opacity="0.1">
<path d="M998.336 371.95C997.9 372.719 994.067 379.52 994.067 382.8C994.067 385.653 996.38 387.967 999.234 387.967C1002.09 387.967 1004.4 385.653 1004.4 382.8C1004.4 379.52 1000.57 372.719 1000.13 371.95C999.931 371.649 999.595 371.467 999.234 371.467C998.872 371.467 998.536 371.649 998.336 371.95ZM999.234 385.9C997.522 385.9 996.134 384.512 996.134 382.8C996.134 380.973 997.929 377.128 999.234 374.631C1000.54 377.128 1002.33 380.973 1002.33 382.8C1002.33 384.512 1000.95 385.9 999.234 385.9Z" fill="white"/>
<path d="M1052.97 340.433H1046.77C1046.2 340.433 1045.73 340.896 1045.73 341.467V344.567H1031.85L1030.31 339.12C1030.18 338.675 1029.78 338.367 1029.31 338.367H1026.1V334.233H1033.33C1035.05 334.233 1036.43 332.845 1036.43 331.133C1036.43 329.421 1035.05 328.033 1033.33 328.033H1012.67C1010.95 328.033 1009.57 329.421 1009.57 331.133C1009.57 332.845 1010.95 334.233 1012.67 334.233H1019.9V338.367H1016.69C1016.22 338.367 1015.82 338.675 1015.69 339.12L1014.15 344.567H1005.43C998.018 344.575 992.009 350.585 992 358V366.267C992 366.837 992.463 367.3 993.033 367.3H1005.43C1006 367.3 1006.47 366.837 1006.47 366.267V362.133C1006.47 360.421 1007.85 359.033 1009.57 359.033H1010.78C1011.69 363.722 1016.25 367.3 1021.74 367.3H1024.26C1029.75 367.3 1034.31 363.722 1035.22 359.033H1045.73V362.133C1045.73 362.704 1046.2 363.167 1046.77 363.167H1052.97C1053.54 363.167 1054 362.704 1054 362.133V341.467C1054 340.896 1053.54 340.433 1052.97 340.433ZM1011.63 331.133C1011.63 330.563 1012.1 330.1 1012.67 330.1H1033.33C1033.9 330.1 1034.37 330.563 1034.37 331.133C1034.37 331.704 1033.9 332.167 1033.33 332.167H1012.67C1012.1 332.167 1011.63 331.704 1011.63 331.133ZM1021.97 334.233H1024.03V338.367H1021.97V334.233ZM1004.4 362.133V365.233H994.067V358C994.074 351.725 999.159 346.641 1005.43 346.633H1013.57L1010.66 356.967H1009.57C1006.71 356.97 1004.4 359.281 1004.4 362.133ZM1024.26 365.233H1021.74C1016.79 365.233 1012.75 361.754 1012.67 357.449L1017.47 340.433H1028.53L1033.33 357.449C1033.25 361.754 1029.21 365.233 1024.26 365.233ZM1035.34 356.967L1032.43 346.633H1045.73V356.967H1035.34ZM1051.93 361.1H1047.8V342.5H1051.93V361.1Z" fill="white"/>
</g>
<g opacity="0.1">
<path d="M660.336 241.95C659.9 242.719 656.067 249.52 656.067 252.8C656.067 255.653 658.38 257.967 661.234 257.967C664.087 257.967 666.4 255.653 666.4 252.8C666.4 249.52 662.568 242.719 662.131 241.95C661.931 241.649 661.595 241.467 661.234 241.467C660.872 241.467 660.536 241.649 660.336 241.95ZM661.234 255.9C659.522 255.9 658.134 254.512 658.134 252.8C658.134 250.973 659.929 247.128 661.234 244.631C662.538 247.128 664.334 250.973 664.334 252.8C664.334 254.512 662.946 255.9 661.234 255.9Z" fill="white"/>
<path d="M714.967 210.433H708.767C708.196 210.433 707.733 210.896 707.733 211.467V214.567H693.846L692.31 209.12C692.184 208.675 691.778 208.367 691.315 208.367H688.1V204.233H695.333C697.045 204.233 698.433 202.845 698.433 201.133C698.433 199.421 697.045 198.033 695.333 198.033H674.667C672.955 198.033 671.567 199.421 671.567 201.133C671.567 202.845 672.955 204.233 674.667 204.233H681.9V208.367H678.685C678.222 208.367 677.816 208.675 677.69 209.12L676.154 214.567H667.433C660.018 214.575 654.009 220.585 654 228V236.267C654 236.837 654.463 237.3 655.033 237.3H667.433C668.004 237.3 668.467 236.837 668.467 236.267V232.133C668.467 230.421 669.855 229.033 671.567 229.033H672.778C673.692 233.722 678.255 237.3 683.737 237.3H686.263C691.747 237.3 696.308 233.722 697.222 229.033H707.733V232.133C707.733 232.704 708.196 233.167 708.767 233.167H714.967C715.537 233.167 716 232.704 716 232.133V211.467C716 210.896 715.537 210.433 714.967 210.433ZM673.633 201.133C673.633 200.563 674.096 200.1 674.667 200.1H695.333C695.904 200.1 696.367 200.563 696.367 201.133C696.367 201.704 695.904 202.167 695.333 202.167H674.667C674.096 202.167 673.633 201.704 673.633 201.133ZM683.967 204.233H686.033V208.367H683.967V204.233ZM666.4 232.133V235.233H656.067V228C656.074 221.725 661.159 216.641 667.433 216.633H675.571L672.657 226.967H671.567C668.714 226.97 666.404 229.281 666.4 232.133ZM686.263 235.233H683.737C678.788 235.233 674.752 231.754 674.668 227.449L679.468 210.433H690.532L695.333 227.449C695.248 231.754 691.212 235.233 686.263 235.233ZM697.343 226.967L694.429 216.633H707.733V226.967H697.343ZM713.933 231.1H709.8V212.5H713.933V231.1Z" fill="white"/>
</g>
<g opacity="0.1">
<path d="M521.967 882.433H515.767C515.196 882.433 514.733 882.896 514.733 883.467V886.567H500.846L499.31 881.12C499.184 880.675 498.778 880.367 498.315 880.367H495.1V876.233H502.333C504.045 876.233 505.433 874.845 505.433 873.133C505.433 871.421 504.045 870.033 502.333 870.033H481.667C479.955 870.033 478.567 871.421 478.567 873.133C478.567 874.845 479.955 876.233 481.667 876.233H488.9V880.367H485.685C485.222 880.367 484.816 880.675 484.69 881.12L483.154 886.567H474.433C467.018 886.575 461.009 892.585 461 900V908.267C461 908.837 461.463 909.3 462.033 909.3H474.433C475.004 909.3 475.467 908.837 475.467 908.267V904.133C475.467 902.421 476.855 901.033 478.567 901.033H479.778C480.692 905.722 485.255 909.3 490.737 909.3H493.263C498.747 909.3 503.308 905.722 504.222 901.033H514.733V904.133C514.733 904.704 515.196 905.167 515.767 905.167H521.967C522.537 905.167 523 904.704 523 904.133V883.467C523 882.896 522.537 882.433 521.967 882.433ZM480.633 873.133C480.633 872.563 481.096 872.1 481.667 872.1H502.333C502.904 872.1 503.367 872.563 503.367 873.133C503.367 873.704 502.904 874.167 502.333 874.167H481.667C481.096 874.167 480.633 873.704 480.633 873.133ZM490.967 876.233H493.033V880.367H490.967V876.233ZM473.4 904.133V907.233H463.067V900C463.074 893.725 468.159 888.641 474.433 888.633H482.571L479.657 898.967H478.567C475.714 898.97 473.404 901.281 473.4 904.133ZM493.263 907.233H490.737C485.788 907.233 481.752 903.754 481.668 899.449L486.468 882.433H497.532L502.333 899.449C502.248 903.754 498.212 907.233 493.263 907.233ZM504.343 898.967L501.429 888.633H514.733V898.967H504.343ZM520.933 903.1H516.8V884.5H520.933V903.1Z" fill="white"/>
</g>
<g opacity="0.1" clip-path="url(#clip5)">
<path d="M1076.37 179.409L1074.03 173.13C1073.81 172.552 1073.98 171.888 1074.44 171.479C1075.17 170.836 1075.59 169.911 1075.59 168.941C1075.59 167.564 1074.74 166.304 1073.47 165.806C1071.5 165.026 1069.9 163.814 1069.09 163.132C1069.37 162.654 1069.59 162.131 1069.73 161.572L1070.35 159.099C1070.61 158.032 1070.67 156.939 1070.53 155.849L1068.85 143.269C1068.77 142.651 1068.39 142.115 1067.83 141.837L1066.35 141.096C1066.07 140.955 1065.73 140.97 1065.46 141.136C1065.2 141.301 1065.03 141.593 1065.03 141.908V153.939C1065.03 154.611 1064.7 155.234 1064.14 155.607L1064 155.701L1063.86 155.607C1063.3 155.234 1062.97 154.611 1062.97 153.939V141.908C1062.97 141.593 1062.8 141.301 1062.54 141.136C1062.27 140.97 1061.93 140.955 1061.65 141.096L1060.17 141.837C1059.61 142.115 1059.23 142.651 1059.15 143.269L1057.47 155.849C1057.33 156.939 1057.39 158.032 1057.65 159.099L1058.27 161.572C1058.41 162.131 1058.63 162.653 1058.91 163.131C1058.1 163.813 1056.5 165.025 1054.53 165.806C1053.26 166.304 1052.41 167.564 1052.41 168.941C1052.41 169.911 1052.83 170.836 1053.56 171.479C1054.02 171.888 1054.19 172.552 1053.97 173.13L1051.63 179.409C1050.86 181.469 1050.47 183.629 1050.47 185.828V200.15C1050.47 201.722 1051.75 203 1053.32 203C1054.89 203 1056.17 201.722 1056.17 200.15V186.682C1056.17 185.473 1056.46 184.262 1057 183.181L1061.44 174.305C1062.44 172.302 1062.97 170.06 1062.97 167.821V166.018C1063.27 166.08 1063.59 166.113 1063.91 166.113C1064.29 166.113 1064.67 166.076 1065.03 166.007V168.117C1065.03 168.619 1065.44 169.026 1065.94 169.026C1066.44 169.026 1066.85 168.619 1066.85 168.117V165.345C1067.25 165.122 1067.62 164.855 1067.95 164.549C1068.87 165.324 1070.61 166.63 1072.81 167.495C1073.38 167.722 1073.77 168.303 1073.77 168.941C1073.77 169.391 1073.58 169.821 1073.24 170.119C1072.22 171.022 1071.85 172.487 1072.33 173.764L1074.67 180.043C1075.36 181.9 1075.71 183.846 1075.71 185.828V200.15C1075.71 200.72 1075.25 201.184 1074.68 201.184C1074.11 201.184 1073.64 200.72 1073.64 200.15V186.682C1073.64 185.192 1073.29 183.701 1072.63 182.368L1068.19 173.493C1067.9 172.922 1067.66 172.324 1067.46 171.717C1067.31 171.24 1066.8 170.978 1066.32 171.132C1065.84 171.286 1065.58 171.798 1065.73 172.275C1065.96 172.97 1066.24 173.653 1066.56 174.305L1071 183.181C1071.54 184.262 1071.83 185.472 1071.83 186.681V200.15C1071.83 201.722 1073.11 203 1074.68 203C1076.25 203 1077.53 201.722 1077.53 200.15V185.828C1077.53 183.629 1077.14 181.469 1076.37 179.409ZM1059.27 156.089L1060.95 143.509C1060.95 143.488 1060.97 143.471 1060.98 143.461L1061.15 143.378V153.94C1061.15 155.028 1061.61 156.048 1062.4 156.766L1061.3 157.499C1060.55 157.998 1059.98 158.689 1059.62 159.482L1059.42 158.659C1059.21 157.815 1059.16 156.951 1059.27 156.089ZM1061.15 167.821C1061.15 169.78 1060.69 171.741 1059.81 173.493L1055.37 182.368C1054.71 183.701 1054.36 185.192 1054.36 186.681V200.15C1054.36 200.72 1053.89 201.184 1053.32 201.184C1052.75 201.184 1052.29 200.72 1052.29 200.15V185.828C1052.29 183.846 1052.64 181.9 1053.33 180.043L1055.67 173.764C1056.15 172.487 1055.78 171.022 1054.76 170.119C1054.42 169.82 1054.23 169.391 1054.23 168.941C1054.23 168.303 1054.62 167.722 1055.19 167.495C1057.39 166.629 1059.13 165.323 1060.05 164.547C1060.38 164.853 1060.75 165.119 1061.15 165.342V167.821ZM1068.58 158.658L1067.97 161.132C1067.5 162.995 1065.83 164.297 1063.91 164.297C1062.32 164.297 1061.03 163.002 1061.03 161.411C1061.03 160.444 1061.51 159.547 1062.31 159.01L1065.15 157.118C1066.21 156.408 1066.85 155.22 1066.85 153.939V143.378L1067.02 143.461C1067.04 143.47 1067.05 143.488 1067.05 143.509L1068.73 156.089C1068.84 156.951 1068.79 157.815 1068.58 158.658Z" fill="white"/>
<path d="M1064 162.229C1064.5 162.229 1064.91 161.822 1064.91 161.321C1064.91 160.819 1064.5 160.413 1064 160.413C1063.5 160.413 1063.09 160.819 1063.09 161.321C1063.09 161.822 1063.5 162.229 1064 162.229Z" fill="white"/>
</g>
<g opacity="0.1" clip-path="url(#clip6)">
<path d="M158.37 803.409L156.03 797.13C155.814 796.552 155.98 795.888 156.443 795.479C157.169 794.836 157.586 793.911 157.586 792.941C157.586 791.564 156.737 790.304 155.474 789.806C153.496 789.026 151.899 787.814 151.094 787.132C151.372 786.654 151.587 786.131 151.727 785.572L152.345 783.099C152.612 782.032 152.674 780.939 152.528 779.849L150.851 767.269C150.769 766.651 150.387 766.115 149.829 765.837L148.348 765.096C148.066 764.955 147.732 764.97 147.464 765.136C147.196 765.301 147.033 765.593 147.033 765.908V777.939C147.033 778.611 146.7 779.234 146.141 779.607L146 779.701L145.859 779.607C145.301 779.234 144.967 778.611 144.967 777.939V765.908C144.967 765.593 144.804 765.301 144.536 765.136C144.268 764.97 143.934 764.955 143.653 765.096L142.171 765.837C141.614 766.115 141.231 766.651 141.149 767.269L139.472 779.849C139.326 780.939 139.388 782.032 139.655 783.099L140.273 785.572C140.412 786.131 140.629 786.653 140.907 787.131C140.101 787.813 138.505 789.025 136.526 789.806C135.263 790.304 134.414 791.564 134.414 792.941C134.414 793.911 134.831 794.836 135.558 795.479C136.02 795.888 136.186 796.552 135.97 797.13L133.63 803.409C132.862 805.469 132.473 807.629 132.473 809.828V824.15C132.473 825.722 133.751 827 135.322 827C136.893 827 138.172 825.722 138.172 824.15V810.682C138.172 809.473 138.458 808.262 138.998 807.181L143.436 798.305C144.437 796.302 144.967 794.06 144.967 791.821V790.018C145.272 790.08 145.588 790.113 145.911 790.113C146.293 790.113 146.668 790.076 147.033 790.007V792.117C147.033 792.619 147.44 793.026 147.941 793.026C148.443 793.026 148.849 792.619 148.849 792.117V789.345C149.246 789.122 149.617 788.855 149.953 788.549C150.871 789.324 152.611 790.63 154.808 791.495C155.383 791.722 155.769 792.303 155.769 792.941C155.769 793.391 155.576 793.821 155.239 794.119C154.218 795.022 153.852 796.487 154.328 797.764L156.668 804.043C157.36 805.9 157.711 807.846 157.711 809.828V824.15C157.711 824.72 157.247 825.184 156.678 825.184C156.108 825.184 155.644 824.72 155.644 824.15V810.682C155.644 809.192 155.292 807.701 154.626 806.368L150.188 797.493C149.903 796.922 149.659 796.324 149.463 795.717C149.309 795.24 148.797 794.978 148.32 795.132C147.842 795.286 147.58 795.798 147.734 796.275C147.959 796.97 148.238 797.653 148.564 798.305L153.002 807.181C153.542 808.262 153.828 809.472 153.828 810.681V824.15C153.828 825.722 155.106 827 156.678 827C158.249 827 159.527 825.722 159.527 824.15V809.828C159.528 807.629 159.138 805.469 158.37 803.409ZM141.272 780.089L142.95 767.509C142.952 767.488 142.965 767.471 142.984 767.461L143.151 767.378V777.94C143.151 779.028 143.611 780.048 144.403 780.766L143.303 781.499C142.555 781.998 141.98 782.689 141.623 783.482L141.417 782.659C141.206 781.815 141.157 780.951 141.272 780.089ZM143.151 791.821C143.15 793.78 142.688 795.741 141.812 797.493L137.374 806.368C136.708 807.701 136.356 809.192 136.356 810.681V824.15C136.356 824.72 135.892 825.184 135.322 825.184C134.753 825.184 134.289 824.72 134.289 824.15V809.828C134.289 807.846 134.64 805.9 135.332 804.043L137.672 797.764C138.148 796.487 137.782 795.022 136.761 794.119C136.424 793.82 136.231 793.391 136.231 792.941C136.231 792.303 136.617 791.722 137.192 791.495C139.39 790.629 141.131 789.323 142.049 788.547C142.385 788.853 142.754 789.119 143.151 789.342V791.821ZM150.583 782.658L149.965 785.132C149.499 786.995 147.832 788.297 145.911 788.297C144.32 788.297 143.025 787.002 143.025 785.411C143.025 784.444 143.506 783.547 144.31 783.01L147.148 781.118C148.214 780.408 148.85 779.22 148.85 777.939V767.378L149.017 767.461C149.035 767.47 149.048 767.488 149.051 767.509L150.728 780.089C150.843 780.951 150.794 781.815 150.583 782.658Z" fill="white"/>
<path d="M146 786.229C146.502 786.229 146.908 785.822 146.908 785.321C146.908 784.819 146.502 784.413 146 784.413C145.498 784.413 145.092 784.819 145.092 785.321C145.092 785.822 145.498 786.229 146 786.229Z" fill="white"/>
</g>
<g opacity="0.1" clip-path="url(#clip7)">
<path d="M183.358 491.913L176.312 484.867C175.761 484.316 174.871 484.316 174.32 484.867L170.092 489.095C169.541 489.646 169.541 490.536 170.092 491.087L177.138 498.133C177.413 498.407 177.773 498.545 178.134 498.545C178.495 498.545 178.856 498.407 179.13 498.133L183.358 493.905C183.909 493.354 183.909 492.464 183.358 491.913ZM178.134 495.144L173.081 490.091L175.316 487.856L180.369 492.909L178.134 495.144Z" fill="white"/>
<path d="M214.358 451.05L208.721 445.413C208.171 444.862 207.28 444.862 206.729 445.413L178.547 473.595C177.996 474.146 177.996 475.036 178.547 475.587C179.098 476.138 179.989 476.138 180.54 475.587L207.725 448.402L211.058 451.735L208.249 453.331C207.755 453.611 207.479 454.162 207.546 454.727L208.051 458.838L204.451 460.885C203.956 461.165 203.678 461.716 203.747 462.281L204.252 466.392L200.652 468.439C200.157 468.72 199.881 469.27 199.948 469.836L200.453 473.946L196.853 475.993C196.358 476.274 196.08 476.825 196.149 477.39L196.654 481.5L193.054 483.547C192.559 483.828 192.283 484.379 192.351 484.944L192.855 489.054L189.255 491.102C188.736 491.396 188.459 491.987 188.564 492.574L189.294 496.662L187.998 497.962L187.172 497.137L187.585 496.724C187.849 496.46 187.998 496.101 187.998 495.728V490.091C187.998 489.718 187.85 489.359 187.585 489.095L176.312 477.822C175.761 477.271 174.871 477.271 174.32 477.822L161.638 490.504C161.087 491.055 161.087 491.945 161.638 492.496C161.913 492.771 162.274 492.909 162.635 492.909C162.995 492.909 163.356 492.771 163.631 492.496L164.044 492.084L176.142 504.182L175.729 504.595C175.178 505.146 175.178 506.036 175.729 506.587C176.004 506.862 176.365 507 176.725 507C177.086 507 177.447 506.862 177.722 506.587L181.949 502.36C182.5 501.809 182.5 500.919 181.949 500.368C181.398 499.817 180.507 499.817 179.956 500.368L178.134 502.19L166.036 490.091L175.316 480.811L185.18 490.675V495.144L184.184 496.14C183.633 496.691 183.633 497.582 184.184 498.133L187.002 500.951C187.553 501.502 188.443 501.502 188.994 500.951L191.813 498.133C192.138 497.807 192.285 497.342 192.203 496.889L191.519 493.057L195.07 491.038C195.565 490.758 195.841 490.207 195.773 489.642L195.269 485.531L198.869 483.484C199.364 483.204 199.64 482.653 199.572 482.088L199.068 477.977L202.668 475.93C203.163 475.649 203.439 475.099 203.371 474.533L202.867 470.423L206.467 468.376C206.962 468.095 207.238 467.544 207.17 466.979L206.666 462.869L210.266 460.822C210.761 460.541 211.037 459.99 210.969 459.425L210.465 455.315L214.065 453.267C214.447 453.05 214.706 452.667 214.765 452.232C214.817 451.799 214.669 451.361 214.358 451.05Z" fill="white"/>
</g>
<g opacity="0.1" clip-path="url(#clip8)">
<path d="M1173.36 525.913L1166.31 518.867C1165.76 518.316 1164.87 518.316 1164.32 518.867L1160.09 523.095C1159.54 523.646 1159.54 524.536 1160.09 525.087L1167.14 532.133C1167.41 532.407 1167.77 532.545 1168.13 532.545C1168.49 532.545 1168.86 532.407 1169.13 532.133L1173.36 527.905C1173.91 527.354 1173.91 526.464 1173.36 525.913ZM1168.13 529.144L1163.08 524.091L1165.32 521.856L1170.37 526.909L1168.13 529.144Z" fill="white"/>
<path d="M1204.36 485.05L1198.72 479.413C1198.17 478.862 1197.28 478.862 1196.73 479.413L1168.55 507.595C1168 508.146 1168 509.036 1168.55 509.587C1169.1 510.138 1169.99 510.138 1170.54 509.587L1197.73 482.402L1201.06 485.735L1198.25 487.331C1197.75 487.611 1197.48 488.162 1197.55 488.727L1198.05 492.838L1194.45 494.885C1193.96 495.165 1193.68 495.716 1193.75 496.281L1194.25 500.392L1190.65 502.439C1190.16 502.72 1189.88 503.27 1189.95 503.836L1190.45 507.946L1186.85 509.993C1186.36 510.274 1186.08 510.825 1186.15 511.39L1186.65 515.5L1183.05 517.547C1182.56 517.828 1182.28 518.379 1182.35 518.944L1182.86 523.054L1179.25 525.102C1178.74 525.396 1178.46 525.987 1178.56 526.574L1179.29 530.662L1178 531.962L1177.17 531.137L1177.59 530.724C1177.85 530.46 1178 530.101 1178 529.728V524.091C1178 523.718 1177.85 523.359 1177.59 523.095L1166.31 511.822C1165.76 511.271 1164.87 511.271 1164.32 511.822L1151.64 524.504C1151.09 525.055 1151.09 525.945 1151.64 526.496C1151.91 526.771 1152.27 526.909 1152.63 526.909C1153 526.909 1153.36 526.771 1153.63 526.496L1154.04 526.084L1166.14 538.182L1165.73 538.595C1165.18 539.146 1165.18 540.036 1165.73 540.587C1166 540.862 1166.36 541 1166.73 541C1167.09 541 1167.45 540.862 1167.72 540.587L1171.95 536.36C1172.5 535.809 1172.5 534.919 1171.95 534.368C1171.4 533.817 1170.51 533.817 1169.96 534.368L1168.13 536.19L1156.04 524.091L1165.32 514.811L1175.18 524.675V529.144L1174.18 530.14C1173.63 530.691 1173.63 531.582 1174.18 532.133L1177 534.951C1177.55 535.502 1178.44 535.502 1178.99 534.951L1181.81 532.133C1182.14 531.807 1182.28 531.342 1182.2 530.889L1181.52 527.057L1185.07 525.038C1185.56 524.758 1185.84 524.207 1185.77 523.642L1185.27 519.531L1188.87 517.484C1189.36 517.204 1189.64 516.653 1189.57 516.088L1189.07 511.977L1192.67 509.93C1193.16 509.649 1193.44 509.099 1193.37 508.533L1192.87 504.423L1196.47 502.376C1196.96 502.095 1197.24 501.544 1197.17 500.979L1196.67 496.869L1200.27 494.822C1200.76 494.541 1201.04 493.99 1200.97 493.425L1200.46 489.315L1204.06 487.267C1204.45 487.05 1204.71 486.667 1204.77 486.232C1204.82 485.799 1204.67 485.361 1204.36 485.05Z" fill="white"/>
</g>
<g opacity="0.1" clip-path="url(#clip9)">
<path d="M380.358 749.913L373.312 742.867C372.761 742.316 371.871 742.316 371.32 742.867L367.092 747.095C366.541 747.646 366.541 748.536 367.092 749.087L374.138 756.133C374.413 756.407 374.773 756.545 375.134 756.545C375.495 756.545 375.856 756.407 376.13 756.133L380.358 751.905C380.909 751.354 380.909 750.464 380.358 749.913ZM375.134 753.144L370.081 748.091L372.316 745.856L377.369 750.909L375.134 753.144Z" fill="white"/>
<path d="M411.358 709.05L405.721 703.413C405.171 702.862 404.28 702.862 403.729 703.413L375.547 731.595C374.996 732.146 374.996 733.036 375.547 733.587C376.098 734.138 376.989 734.138 377.54 733.587L404.725 706.402L408.058 709.735L405.249 711.331C404.755 711.611 404.479 712.162 404.546 712.727L405.051 716.838L401.451 718.885C400.956 719.165 400.678 719.716 400.747 720.281L401.252 724.392L397.652 726.439C397.157 726.72 396.881 727.27 396.948 727.836L397.453 731.946L393.853 733.993C393.358 734.274 393.08 734.825 393.149 735.39L393.654 739.5L390.054 741.547C389.559 741.828 389.283 742.379 389.351 742.944L389.855 747.054L386.255 749.102C385.736 749.396 385.459 749.987 385.564 750.574L386.294 754.662L384.998 755.962L384.172 755.137L384.585 754.724C384.849 754.46 384.998 754.101 384.998 753.728V748.091C384.998 747.718 384.85 747.359 384.585 747.095L373.312 735.822C372.761 735.271 371.871 735.271 371.32 735.822L358.638 748.504C358.087 749.055 358.087 749.945 358.638 750.496C358.913 750.771 359.274 750.909 359.635 750.909C359.995 750.909 360.356 750.771 360.631 750.496L361.044 750.084L373.142 762.182L372.729 762.595C372.178 763.146 372.178 764.036 372.729 764.587C373.004 764.862 373.365 765 373.725 765C374.086 765 374.447 764.862 374.722 764.587L378.949 760.36C379.5 759.809 379.5 758.919 378.949 758.368C378.398 757.817 377.507 757.817 376.956 758.368L375.134 760.19L363.036 748.091L372.316 738.811L382.18 748.675V753.144L381.184 754.14C380.633 754.691 380.633 755.582 381.184 756.133L384.002 758.951C384.553 759.502 385.443 759.502 385.994 758.951L388.813 756.133C389.138 755.807 389.285 755.342 389.203 754.889L388.519 751.057L392.07 749.038C392.565 748.758 392.841 748.207 392.773 747.642L392.269 743.531L395.869 741.484C396.364 741.204 396.64 740.653 396.572 740.088L396.068 735.977L399.668 733.93C400.163 733.649 400.439 733.099 400.371 732.533L399.867 728.423L403.467 726.376C403.962 726.095 404.238 725.544 404.17 724.979L403.666 720.869L407.266 718.822C407.761 718.541 408.037 717.99 407.969 717.425L407.465 713.315L411.065 711.267C411.447 711.05 411.706 710.667 411.765 710.232C411.817 709.799 411.669 709.361 411.358 709.05Z" fill="white"/>
</g>
<g opacity="0.1" clip-path="url(#clip10)">
<path d="M32.1875 654.066C46.0765 654.066 57.375 642.768 57.375 628.879V625C57.375 611.111 46.0765 599.812 32.1875 599.812C18.2985 599.812 7 611.111 7 625V628.879C7 642.768 18.2985 654.066 32.1875 654.066ZM32.1875 652.129C22.9902 652.129 15.0242 646.76 11.2557 638.993C15.7798 645.738 23.4726 650.188 32.1875 650.188C40.9024 650.188 48.5962 645.738 53.1193 638.993C49.3508 646.76 41.3848 652.129 32.1875 652.129ZM32.1875 601.75C45.007 601.75 55.4375 612.181 55.4375 625C55.4375 637.819 45.007 648.25 32.1875 648.25C19.368 648.25 8.9375 637.819 8.9375 625C8.9375 612.181 19.368 601.75 32.1875 601.75Z" fill="white"/>
<path d="M32.1875 606.594C32.7232 606.594 33.1562 606.161 33.1562 605.625C33.1562 605.089 32.7232 604.656 32.1875 604.656C20.9703 604.656 11.8438 613.783 11.8438 625C11.8438 625.536 12.2768 625.969 12.8125 625.969C13.3482 625.969 13.7812 625.536 13.7812 625C13.7812 614.85 22.0379 606.594 32.1875 606.594Z" fill="white"/>
<path d="M32.1875 643.406C31.6518 643.406 31.2188 643.839 31.2188 644.375C31.2188 644.911 31.6518 645.344 32.1875 645.344C43.4047 645.344 52.5312 636.217 52.5312 625C52.5312 624.464 52.0982 624.031 51.5625 624.031C51.0268 624.031 50.5938 624.464 50.5938 625C50.5938 635.15 42.3371 643.406 32.1875 643.406Z" fill="white"/>
<path d="M32.1875 611.438C32.7232 611.438 33.1562 611.004 33.1562 610.469C33.1562 609.933 32.7232 609.5 32.1875 609.5C23.6412 609.5 16.6875 616.454 16.6875 625C16.6875 625.536 17.1205 625.969 17.6562 625.969C18.192 625.969 18.625 625.536 18.625 625C18.625 617.521 24.7087 611.438 32.1875 611.438Z" fill="white"/>
<path d="M32.1875 638.562C31.6518 638.562 31.2188 638.996 31.2188 639.531C31.2188 640.067 31.6518 640.5 32.1875 640.5C40.7338 640.5 47.6875 633.546 47.6875 625C47.6875 624.464 47.2545 624.031 46.7188 624.031C46.183 624.031 45.75 624.464 45.75 625C45.75 632.479 39.6663 638.562 32.1875 638.562Z" fill="white"/>
<path d="M21.5312 625C21.5312 630.875 26.312 635.656 32.1875 635.656C38.063 635.656 42.8438 630.875 42.8438 625C42.8438 619.125 38.063 614.344 32.1875 614.344C26.312 614.344 21.5312 619.125 21.5312 625ZM40.9062 625C40.9062 629.808 36.9954 633.719 32.1875 633.719C27.3796 633.719 23.4688 629.808 23.4688 625C23.4688 620.192 27.3796 616.281 32.1875 616.281C36.9954 616.281 40.9062 620.192 40.9062 625Z" fill="white"/>
<path d="M24.4375 625C24.4375 629.273 27.9143 632.75 32.1875 632.75C36.4607 632.75 39.9375 629.273 39.9375 625C39.9375 620.727 36.4607 617.25 32.1875 617.25C27.9143 617.25 24.4375 620.727 24.4375 625ZM32.1875 630.812C29.6678 630.812 27.5249 629.199 26.7189 626.953C27.5327 624.655 29.7317 623.066 32.1875 623.066C34.6433 623.066 36.8423 624.655 37.6561 626.953C36.8501 629.199 34.7072 630.812 32.1875 630.812ZM37.8169 623.577C36.3812 622.061 34.3585 621.129 32.1875 621.129C30.0165 621.129 27.9947 622.062 26.5571 623.579C27.1946 621.06 29.4731 619.188 32.1875 619.188C34.901 619.188 37.1785 621.059 37.8169 623.577Z" fill="white"/>
<path d="M68.9564 601.534C68.9409 601.47 68.9332 601.403 68.9051 601.345C68.9012 601.335 68.9022 601.326 68.8973 601.318C68.877 601.278 68.8421 601.253 68.8189 601.217C68.7762 601.155 68.7365 601.093 68.6803 601.042C68.6396 601.005 68.5922 600.981 68.5466 600.952C68.4875 600.913 68.4314 600.874 68.3645 600.849C68.3074 600.829 68.2492 600.825 68.1892 600.814C68.1369 600.804 68.0884 600.781 68.0313 600.781C68.0187 600.781 68.009 600.788 67.9974 600.788C67.9402 600.79 67.8879 600.809 67.8317 600.822C67.761 600.837 67.6883 600.847 67.6244 600.878C67.6157 600.882 67.606 600.88 67.5982 600.885L66.0918 601.638L64.5903 600.885C64.3161 600.748 63.9954 600.748 63.7223 600.885L62.2188 601.638L60.7143 600.885C60.7065 600.881 60.6988 600.882 60.692 600.878C60.6242 600.847 60.5496 600.835 60.474 600.82C60.4208 600.808 60.3704 600.79 60.3171 600.788C60.3045 600.788 60.2948 600.781 60.2832 600.781C60.228 600.781 60.1805 600.804 60.1272 600.812C60.0662 600.823 60.0042 600.828 59.9451 600.849C59.8841 600.871 59.8327 600.909 59.7775 600.944C59.7252 600.976 59.6739 601.003 59.6283 601.045C59.5799 601.089 59.546 601.146 59.5072 601.199C59.4782 601.24 59.4384 601.27 59.4142 601.318C59.4084 601.329 59.4104 601.339 59.4055 601.35C59.3832 601.399 59.3774 601.453 59.3629 601.506C59.3425 601.58 59.3203 601.652 59.3183 601.728C59.3183 601.735 59.3135 601.742 59.3135 601.75V652.129C59.3135 652.138 59.3183 652.144 59.3183 652.152C59.3203 652.23 59.3435 652.303 59.3648 652.38C59.3784 652.429 59.3842 652.481 59.4045 652.527C59.4094 652.539 59.4084 652.55 59.4142 652.562C59.4404 652.614 59.483 652.648 59.5159 652.694C59.5518 652.741 59.5809 652.792 59.6244 652.832C59.6768 652.881 59.7359 652.913 59.7959 652.947C59.8434 652.976 59.886 653.008 59.9374 653.028C60.0081 653.054 60.0817 653.062 60.1582 653.072C60.2009 653.078 60.2386 653.097 60.2822 653.097C60.2919 653.097 60.2997 653.092 60.3084 653.091C60.3743 653.089 60.4392 653.068 60.5041 653.052C60.5651 653.037 60.629 653.03 60.6852 653.003C60.6949 652.999 60.7046 653 60.7133 652.995L62.2188 652.243L63.7232 652.996C63.9954 653.132 64.3171 653.132 64.5903 652.996L66.0938 652.243L67.5982 652.996C67.6079 653.001 67.6186 652.999 67.6263 653.003C67.7406 653.056 67.8646 653.086 67.9974 653.091C68.009 653.091 68.0187 653.099 68.0303 653.099C68.1475 653.099 68.2599 653.07 68.3684 653.03C68.3955 653.019 68.4217 653.009 68.4469 652.996C68.534 652.955 68.6135 652.902 68.6842 652.836C68.6978 652.824 68.7113 652.817 68.7229 652.805C68.7908 652.735 68.8518 652.656 68.8983 652.564C68.9031 652.554 68.9022 652.543 68.907 652.534C68.9322 652.477 68.9409 652.415 68.9554 652.353C68.9719 652.288 68.9932 652.225 68.9952 652.159C68.9952 652.148 69.001 652.14 69.001 652.13V601.75C69.001 601.739 68.9952 601.731 68.9952 601.722C68.9923 601.658 68.9719 601.598 68.9564 601.534ZM65.6607 650.293L64.1563 651.047L62.6518 650.294C62.3796 650.157 62.0579 650.157 61.7848 650.294L61.251 650.56V603.32L61.7848 603.587C61.9214 603.655 62.0696 603.688 62.2178 603.688C62.366 603.688 62.5152 603.655 62.6508 603.587L64.1563 602.834L65.6578 603.587C65.932 603.723 66.2526 603.723 66.5258 603.587L67.0625 603.318V650.561L66.5268 650.294C66.2546 650.157 65.9329 650.157 65.6607 650.293Z" fill="white"/>
</g>
<g opacity="0.1" clip-path="url(#clip11)">
<path d="M1103.19 716.066C1117.08 716.066 1128.38 704.768 1128.38 690.879V687C1128.38 673.111 1117.08 661.812 1103.19 661.812C1089.3 661.812 1078 673.111 1078 687V690.879C1078 704.768 1089.3 716.066 1103.19 716.066ZM1103.19 714.129C1093.99 714.129 1086.02 708.76 1082.26 700.993C1086.78 707.738 1094.47 712.188 1103.19 712.188C1111.9 712.188 1119.6 707.738 1124.12 700.993C1120.35 708.76 1112.38 714.129 1103.19 714.129ZM1103.19 663.75C1116.01 663.75 1126.44 674.181 1126.44 687C1126.44 699.819 1116.01 710.25 1103.19 710.25C1090.37 710.25 1079.94 699.819 1079.94 687C1079.94 674.181 1090.37 663.75 1103.19 663.75Z" fill="white"/>
<path d="M1103.19 668.594C1103.72 668.594 1104.16 668.161 1104.16 667.625C1104.16 667.089 1103.72 666.656 1103.19 666.656C1091.97 666.656 1082.84 675.783 1082.84 687C1082.84 687.536 1083.28 687.969 1083.81 687.969C1084.35 687.969 1084.78 687.536 1084.78 687C1084.78 676.85 1093.04 668.594 1103.19 668.594Z" fill="white"/>
<path d="M1103.19 705.406C1102.65 705.406 1102.22 705.839 1102.22 706.375C1102.22 706.911 1102.65 707.344 1103.19 707.344C1114.4 707.344 1123.53 698.217 1123.53 687C1123.53 686.464 1123.1 686.031 1122.56 686.031C1122.03 686.031 1121.59 686.464 1121.59 687C1121.59 697.15 1113.34 705.406 1103.19 705.406Z" fill="white"/>
<path d="M1103.19 673.438C1103.72 673.438 1104.16 673.004 1104.16 672.469C1104.16 671.933 1103.72 671.5 1103.19 671.5C1094.64 671.5 1087.69 678.454 1087.69 687C1087.69 687.536 1088.12 687.969 1088.66 687.969C1089.19 687.969 1089.62 687.536 1089.62 687C1089.62 679.521 1095.71 673.438 1103.19 673.438Z" fill="white"/>
<path d="M1103.19 700.562C1102.65 700.562 1102.22 700.996 1102.22 701.531C1102.22 702.067 1102.65 702.5 1103.19 702.5C1111.73 702.5 1118.69 695.546 1118.69 687C1118.69 686.464 1118.25 686.031 1117.72 686.031C1117.18 686.031 1116.75 686.464 1116.75 687C1116.75 694.479 1110.67 700.562 1103.19 700.562Z" fill="white"/>
<path d="M1092.53 687C1092.53 692.875 1097.31 697.656 1103.19 697.656C1109.06 697.656 1113.84 692.875 1113.84 687C1113.84 681.125 1109.06 676.344 1103.19 676.344C1097.31 676.344 1092.53 681.125 1092.53 687ZM1111.91 687C1111.91 691.808 1108 695.719 1103.19 695.719C1098.38 695.719 1094.47 691.808 1094.47 687C1094.47 682.192 1098.38 678.281 1103.19 678.281C1108 678.281 1111.91 682.192 1111.91 687Z" fill="white"/>
<path d="M1095.44 687C1095.44 691.273 1098.91 694.75 1103.19 694.75C1107.46 694.75 1110.94 691.273 1110.94 687C1110.94 682.727 1107.46 679.25 1103.19 679.25C1098.91 679.25 1095.44 682.727 1095.44 687ZM1103.19 692.812C1100.67 692.812 1098.52 691.199 1097.72 688.953C1098.53 686.655 1100.73 685.066 1103.19 685.066C1105.64 685.066 1107.84 686.655 1108.66 688.953C1107.85 691.199 1105.71 692.812 1103.19 692.812ZM1108.82 685.577C1107.38 684.061 1105.36 683.129 1103.19 683.129C1101.02 683.129 1098.99 684.062 1097.56 685.579C1098.19 683.06 1100.47 681.188 1103.19 681.188C1105.9 681.188 1108.18 683.059 1108.82 685.577Z" fill="white"/>
<path d="M1139.96 663.534C1139.94 663.47 1139.93 663.403 1139.91 663.345C1139.9 663.335 1139.9 663.326 1139.9 663.318C1139.88 663.278 1139.84 663.253 1139.82 663.217C1139.78 663.155 1139.74 663.093 1139.68 663.042C1139.64 663.005 1139.59 662.981 1139.55 662.952C1139.49 662.913 1139.43 662.874 1139.36 662.849C1139.31 662.829 1139.25 662.825 1139.19 662.814C1139.14 662.804 1139.09 662.781 1139.03 662.781C1139.02 662.781 1139.01 662.788 1139 662.788C1138.94 662.79 1138.89 662.809 1138.83 662.822C1138.76 662.837 1138.69 662.847 1138.62 662.878C1138.62 662.882 1138.61 662.88 1138.6 662.885L1137.09 663.638L1135.59 662.885C1135.32 662.748 1135 662.748 1134.72 662.885L1133.22 663.638L1131.71 662.885C1131.71 662.881 1131.7 662.882 1131.69 662.878C1131.62 662.847 1131.55 662.835 1131.47 662.82C1131.42 662.808 1131.37 662.79 1131.32 662.788C1131.3 662.788 1131.29 662.781 1131.28 662.781C1131.23 662.781 1131.18 662.804 1131.13 662.812C1131.07 662.823 1131 662.828 1130.95 662.849C1130.88 662.871 1130.83 662.909 1130.78 662.944C1130.73 662.976 1130.67 663.003 1130.63 663.045C1130.58 663.089 1130.55 663.146 1130.51 663.199C1130.48 663.24 1130.44 663.27 1130.41 663.318C1130.41 663.329 1130.41 663.339 1130.41 663.35C1130.38 663.399 1130.38 663.453 1130.36 663.506C1130.34 663.58 1130.32 663.652 1130.32 663.728C1130.32 663.735 1130.31 663.742 1130.31 663.75V714.129C1130.31 714.138 1130.32 714.144 1130.32 714.152C1130.32 714.23 1130.34 714.303 1130.36 714.38C1130.38 714.429 1130.38 714.481 1130.4 714.527C1130.41 714.539 1130.41 714.55 1130.41 714.562C1130.44 714.614 1130.48 714.648 1130.52 714.694C1130.55 714.741 1130.58 714.792 1130.62 714.832C1130.68 714.881 1130.74 714.913 1130.8 714.947C1130.84 714.976 1130.89 715.008 1130.94 715.028C1131.01 715.054 1131.08 715.062 1131.16 715.072C1131.2 715.078 1131.24 715.097 1131.28 715.097C1131.29 715.097 1131.3 715.092 1131.31 715.091C1131.37 715.089 1131.44 715.068 1131.5 715.052C1131.57 715.037 1131.63 715.03 1131.69 715.003C1131.69 714.999 1131.7 715 1131.71 714.995L1133.22 714.243L1134.72 714.996C1135 715.132 1135.32 715.132 1135.59 714.996L1137.09 714.243L1138.6 714.996C1138.61 715.001 1138.62 714.999 1138.63 715.003C1138.74 715.056 1138.86 715.086 1139 715.091C1139.01 715.091 1139.02 715.099 1139.03 715.099C1139.15 715.099 1139.26 715.07 1139.37 715.03C1139.4 715.019 1139.42 715.009 1139.45 714.996C1139.53 714.955 1139.61 714.902 1139.68 714.836C1139.7 714.824 1139.71 714.817 1139.72 714.805C1139.79 714.735 1139.85 714.656 1139.9 714.564C1139.9 714.554 1139.9 714.543 1139.91 714.534C1139.93 714.477 1139.94 714.415 1139.96 714.353C1139.97 714.288 1139.99 714.225 1140 714.159C1140 714.148 1140 714.14 1140 714.13V663.75C1140 663.739 1140 663.731 1140 663.722C1139.99 663.658 1139.97 663.598 1139.96 663.534ZM1136.66 712.293L1135.16 713.047L1133.65 712.294C1133.38 712.157 1133.06 712.157 1132.78 712.294L1132.25 712.56V665.32L1132.78 665.587C1132.92 665.655 1133.07 665.688 1133.22 665.688C1133.37 665.688 1133.52 665.655 1133.65 665.587L1135.16 664.834L1136.66 665.587C1136.93 665.723 1137.25 665.723 1137.53 665.587L1138.06 665.318V712.561L1137.53 712.294C1137.25 712.157 1136.93 712.157 1136.66 712.293Z" fill="white"/>
</g>
<g opacity="0.1" clip-path="url(#clip12)">
<path d="M1186.19 317.066C1200.08 317.066 1211.38 305.768 1211.38 291.879V288C1211.38 274.111 1200.08 262.812 1186.19 262.812C1172.3 262.812 1161 274.111 1161 288V291.879C1161 305.768 1172.3 317.066 1186.19 317.066ZM1186.19 315.129C1176.99 315.129 1169.02 309.76 1165.26 301.993C1169.78 308.738 1177.47 313.188 1186.19 313.188C1194.9 313.188 1202.6 308.738 1207.12 301.993C1203.35 309.76 1195.38 315.129 1186.19 315.129ZM1186.19 264.75C1199.01 264.75 1209.44 275.181 1209.44 288C1209.44 300.819 1199.01 311.25 1186.19 311.25C1173.37 311.25 1162.94 300.819 1162.94 288C1162.94 275.181 1173.37 264.75 1186.19 264.75Z" fill="white"/>
<path d="M1186.19 269.594C1186.72 269.594 1187.16 269.161 1187.16 268.625C1187.16 268.089 1186.72 267.656 1186.19 267.656C1174.97 267.656 1165.84 276.783 1165.84 288C1165.84 288.536 1166.28 288.969 1166.81 288.969C1167.35 288.969 1167.78 288.536 1167.78 288C1167.78 277.85 1176.04 269.594 1186.19 269.594Z" fill="white"/>
<path d="M1186.19 306.406C1185.65 306.406 1185.22 306.839 1185.22 307.375C1185.22 307.911 1185.65 308.344 1186.19 308.344C1197.4 308.344 1206.53 299.217 1206.53 288C1206.53 287.464 1206.1 287.031 1205.56 287.031C1205.03 287.031 1204.59 287.464 1204.59 288C1204.59 298.15 1196.34 306.406 1186.19 306.406Z" fill="white"/>
<path d="M1186.19 274.438C1186.72 274.438 1187.16 274.004 1187.16 273.469C1187.16 272.933 1186.72 272.5 1186.19 272.5C1177.64 272.5 1170.69 279.454 1170.69 288C1170.69 288.536 1171.12 288.969 1171.66 288.969C1172.19 288.969 1172.62 288.536 1172.62 288C1172.62 280.521 1178.71 274.438 1186.19 274.438Z" fill="white"/>
<path d="M1186.19 301.562C1185.65 301.562 1185.22 301.996 1185.22 302.531C1185.22 303.067 1185.65 303.5 1186.19 303.5C1194.73 303.5 1201.69 296.546 1201.69 288C1201.69 287.464 1201.25 287.031 1200.72 287.031C1200.18 287.031 1199.75 287.464 1199.75 288C1199.75 295.479 1193.67 301.562 1186.19 301.562Z" fill="white"/>
<path d="M1175.53 288C1175.53 293.875 1180.31 298.656 1186.19 298.656C1192.06 298.656 1196.84 293.875 1196.84 288C1196.84 282.125 1192.06 277.344 1186.19 277.344C1180.31 277.344 1175.53 282.125 1175.53 288ZM1194.91 288C1194.91 292.808 1191 296.719 1186.19 296.719C1181.38 296.719 1177.47 292.808 1177.47 288C1177.47 283.192 1181.38 279.281 1186.19 279.281C1191 279.281 1194.91 283.192 1194.91 288Z" fill="white"/>
<path d="M1178.44 288C1178.44 292.273 1181.91 295.75 1186.19 295.75C1190.46 295.75 1193.94 292.273 1193.94 288C1193.94 283.727 1190.46 280.25 1186.19 280.25C1181.91 280.25 1178.44 283.727 1178.44 288ZM1186.19 293.812C1183.67 293.812 1181.52 292.199 1180.72 289.953C1181.53 287.655 1183.73 286.066 1186.19 286.066C1188.64 286.066 1190.84 287.655 1191.66 289.953C1190.85 292.199 1188.71 293.812 1186.19 293.812ZM1191.82 286.577C1190.38 285.061 1188.36 284.129 1186.19 284.129C1184.02 284.129 1181.99 285.062 1180.56 286.579C1181.19 284.06 1183.47 282.188 1186.19 282.188C1188.9 282.188 1191.18 284.059 1191.82 286.577Z" fill="white"/>
<path d="M1222.96 264.534C1222.94 264.47 1222.93 264.403 1222.91 264.345C1222.9 264.335 1222.9 264.326 1222.9 264.318C1222.88 264.278 1222.84 264.253 1222.82 264.217C1222.78 264.155 1222.74 264.093 1222.68 264.042C1222.64 264.005 1222.59 263.981 1222.55 263.952C1222.49 263.913 1222.43 263.874 1222.36 263.849C1222.31 263.829 1222.25 263.825 1222.19 263.814C1222.14 263.804 1222.09 263.781 1222.03 263.781C1222.02 263.781 1222.01 263.788 1222 263.788C1221.94 263.79 1221.89 263.809 1221.83 263.822C1221.76 263.837 1221.69 263.847 1221.62 263.878C1221.62 263.882 1221.61 263.88 1221.6 263.885L1220.09 264.638L1218.59 263.885C1218.32 263.748 1218 263.748 1217.72 263.885L1216.22 264.638L1214.71 263.885C1214.71 263.881 1214.7 263.882 1214.69 263.878C1214.62 263.847 1214.55 263.835 1214.47 263.82C1214.42 263.808 1214.37 263.79 1214.32 263.788C1214.3 263.788 1214.29 263.781 1214.28 263.781C1214.23 263.781 1214.18 263.804 1214.13 263.812C1214.07 263.823 1214 263.828 1213.95 263.849C1213.88 263.871 1213.83 263.909 1213.78 263.944C1213.73 263.976 1213.67 264.003 1213.63 264.045C1213.58 264.089 1213.55 264.146 1213.51 264.199C1213.48 264.24 1213.44 264.27 1213.41 264.318C1213.41 264.329 1213.41 264.339 1213.41 264.35C1213.38 264.399 1213.38 264.453 1213.36 264.506C1213.34 264.58 1213.32 264.652 1213.32 264.728C1213.32 264.735 1213.31 264.742 1213.31 264.75V315.129C1213.31 315.138 1213.32 315.144 1213.32 315.152C1213.32 315.23 1213.34 315.303 1213.36 315.38C1213.38 315.429 1213.38 315.481 1213.4 315.527C1213.41 315.539 1213.41 315.55 1213.41 315.562C1213.44 315.614 1213.48 315.648 1213.52 315.694C1213.55 315.741 1213.58 315.792 1213.62 315.832C1213.68 315.881 1213.74 315.913 1213.8 315.947C1213.84 315.976 1213.89 316.008 1213.94 316.028C1214.01 316.054 1214.08 316.062 1214.16 316.072C1214.2 316.078 1214.24 316.097 1214.28 316.097C1214.29 316.097 1214.3 316.092 1214.31 316.091C1214.37 316.089 1214.44 316.068 1214.5 316.052C1214.57 316.037 1214.63 316.03 1214.69 316.003C1214.69 315.999 1214.7 316 1214.71 315.995L1216.22 315.243L1217.72 315.996C1218 316.132 1218.32 316.132 1218.59 315.996L1220.09 315.243L1221.6 315.996C1221.61 316.001 1221.62 315.999 1221.63 316.003C1221.74 316.056 1221.86 316.086 1222 316.091C1222.01 316.091 1222.02 316.099 1222.03 316.099C1222.15 316.099 1222.26 316.07 1222.37 316.03C1222.4 316.019 1222.42 316.009 1222.45 315.996C1222.53 315.955 1222.61 315.902 1222.68 315.836C1222.7 315.824 1222.71 315.817 1222.72 315.805C1222.79 315.735 1222.85 315.656 1222.9 315.564C1222.9 315.554 1222.9 315.543 1222.91 315.534C1222.93 315.477 1222.94 315.415 1222.96 315.353C1222.97 315.288 1222.99 315.225 1223 315.159C1223 315.148 1223 315.14 1223 315.13V264.75C1223 264.739 1223 264.731 1223 264.722C1222.99 264.658 1222.97 264.598 1222.96 264.534ZM1219.66 313.293L1218.16 314.047L1216.65 313.294C1216.38 313.157 1216.06 313.157 1215.78 313.294L1215.25 313.56V266.32L1215.78 266.587C1215.92 266.655 1216.07 266.688 1216.22 266.688C1216.37 266.688 1216.52 266.655 1216.65 266.587L1218.16 265.834L1219.66 266.587C1219.93 266.723 1220.25 266.723 1220.53 266.587L1221.06 266.318V313.561L1220.53 313.294C1220.25 313.157 1219.93 313.157 1219.66 313.293Z" fill="white"/>
</g>
<g opacity="0.1" clip-path="url(#clip13)">
<path d="M133.188 197.066C147.076 197.066 158.375 185.768 158.375 171.879V168C158.375 154.111 147.076 142.812 133.188 142.812C119.299 142.812 108 154.111 108 168V171.879C108 185.768 119.299 197.066 133.188 197.066ZM133.188 195.129C123.99 195.129 116.024 189.76 112.256 181.993C116.78 188.738 124.473 193.188 133.188 193.188C141.902 193.188 149.596 188.738 154.119 181.993C150.351 189.76 142.385 195.129 133.188 195.129ZM133.188 144.75C146.007 144.75 156.438 155.181 156.438 168C156.438 180.819 146.007 191.25 133.188 191.25C120.368 191.25 109.938 180.819 109.938 168C109.938 155.181 120.368 144.75 133.188 144.75Z" fill="white"/>
<path d="M133.188 149.594C133.723 149.594 134.156 149.161 134.156 148.625C134.156 148.089 133.723 147.656 133.188 147.656C121.97 147.656 112.844 156.783 112.844 168C112.844 168.536 113.277 168.969 113.812 168.969C114.348 168.969 114.781 168.536 114.781 168C114.781 157.85 123.038 149.594 133.188 149.594Z" fill="white"/>
<path d="M133.188 186.406C132.652 186.406 132.219 186.839 132.219 187.375C132.219 187.911 132.652 188.344 133.188 188.344C144.405 188.344 153.531 179.217 153.531 168C153.531 167.464 153.098 167.031 152.562 167.031C152.027 167.031 151.594 167.464 151.594 168C151.594 178.15 143.337 186.406 133.188 186.406Z" fill="white"/>
<path d="M133.188 154.438C133.723 154.438 134.156 154.004 134.156 153.469C134.156 152.933 133.723 152.5 133.188 152.5C124.641 152.5 117.688 159.454 117.688 168C117.688 168.536 118.121 168.969 118.656 168.969C119.192 168.969 119.625 168.536 119.625 168C119.625 160.521 125.709 154.438 133.188 154.438Z" fill="white"/>
<path d="M133.188 181.562C132.652 181.562 132.219 181.996 132.219 182.531C132.219 183.067 132.652 183.5 133.188 183.5C141.734 183.5 148.688 176.546 148.688 168C148.688 167.464 148.254 167.031 147.719 167.031C147.183 167.031 146.75 167.464 146.75 168C146.75 175.479 140.666 181.562 133.188 181.562Z" fill="white"/>
<path d="M122.531 168C122.531 173.875 127.312 178.656 133.188 178.656C139.063 178.656 143.844 173.875 143.844 168C143.844 162.125 139.063 157.344 133.188 157.344C127.312 157.344 122.531 162.125 122.531 168ZM141.906 168C141.906 172.808 137.995 176.719 133.188 176.719C128.38 176.719 124.469 172.808 124.469 168C124.469 163.192 128.38 159.281 133.188 159.281C137.995 159.281 141.906 163.192 141.906 168Z" fill="white"/>
<path d="M125.438 168C125.438 172.273 128.914 175.75 133.188 175.75C137.461 175.75 140.938 172.273 140.938 168C140.938 163.727 137.461 160.25 133.188 160.25C128.914 160.25 125.438 163.727 125.438 168ZM133.188 173.812C130.668 173.812 128.525 172.199 127.719 169.953C128.533 167.655 130.732 166.066 133.188 166.066C135.643 166.066 137.842 167.655 138.656 169.953C137.85 172.199 135.707 173.812 133.188 173.812ZM138.817 166.577C137.381 165.061 135.358 164.129 133.188 164.129C131.017 164.129 128.995 165.062 127.557 166.579C128.195 164.06 130.473 162.188 133.188 162.188C135.901 162.188 138.179 164.059 138.817 166.577Z" fill="white"/>
<path d="M169.956 144.534C169.941 144.47 169.933 144.403 169.905 144.345C169.901 144.335 169.902 144.326 169.897 144.318C169.877 144.278 169.842 144.253 169.819 144.217C169.776 144.155 169.737 144.093 169.68 144.042C169.64 144.005 169.592 143.981 169.547 143.952C169.488 143.913 169.431 143.874 169.365 143.849C169.307 143.829 169.249 143.825 169.189 143.814C169.137 143.804 169.088 143.781 169.031 143.781C169.019 143.781 169.009 143.788 168.997 143.788C168.94 143.79 168.888 143.809 168.832 143.822C168.761 143.837 168.688 143.847 168.624 143.878C168.616 143.882 168.606 143.88 168.598 143.885L167.092 144.638L165.59 143.885C165.316 143.748 164.995 143.748 164.722 143.885L163.219 144.638L161.714 143.885C161.707 143.881 161.699 143.882 161.692 143.878C161.624 143.847 161.55 143.835 161.474 143.82C161.421 143.808 161.37 143.79 161.317 143.788C161.305 143.788 161.295 143.781 161.283 143.781C161.228 143.781 161.181 143.804 161.127 143.812C161.066 143.823 161.004 143.828 160.945 143.849C160.884 143.871 160.833 143.909 160.778 143.944C160.725 143.976 160.674 144.003 160.628 144.045C160.58 144.089 160.546 144.146 160.507 144.199C160.478 144.24 160.438 144.27 160.414 144.318C160.408 144.329 160.41 144.339 160.406 144.35C160.383 144.399 160.377 144.453 160.363 144.506C160.343 144.58 160.32 144.652 160.318 144.728C160.318 144.735 160.313 144.742 160.313 144.75V195.129C160.313 195.138 160.318 195.144 160.318 195.152C160.32 195.23 160.344 195.303 160.365 195.38C160.378 195.429 160.384 195.481 160.405 195.527C160.409 195.539 160.408 195.55 160.414 195.562C160.44 195.614 160.483 195.648 160.516 195.694C160.552 195.741 160.581 195.792 160.624 195.832C160.677 195.881 160.736 195.913 160.796 195.947C160.843 195.976 160.886 196.008 160.937 196.028C161.008 196.054 161.082 196.062 161.158 196.072C161.201 196.078 161.239 196.097 161.282 196.097C161.292 196.097 161.3 196.092 161.308 196.091C161.374 196.089 161.439 196.068 161.504 196.052C161.565 196.037 161.629 196.03 161.685 196.003C161.695 195.999 161.705 196 161.713 195.995L163.219 195.243L164.723 195.996C164.995 196.132 165.317 196.132 165.59 195.996L167.094 195.243L168.598 195.996C168.608 196.001 168.619 195.999 168.626 196.003C168.741 196.056 168.865 196.086 168.997 196.091C169.009 196.091 169.019 196.099 169.03 196.099C169.148 196.099 169.26 196.07 169.368 196.03C169.396 196.019 169.422 196.009 169.447 195.996C169.534 195.955 169.613 195.902 169.684 195.836C169.698 195.824 169.711 195.817 169.723 195.805C169.791 195.735 169.852 195.656 169.898 195.564C169.903 195.554 169.902 195.543 169.907 195.534C169.932 195.477 169.941 195.415 169.955 195.353C169.972 195.288 169.993 195.225 169.995 195.159C169.995 195.148 170.001 195.14 170.001 195.13V144.75C170.001 144.739 169.995 144.731 169.995 144.722C169.992 144.658 169.972 144.598 169.956 144.534ZM166.661 193.293L165.156 194.047L163.652 193.294C163.38 193.157 163.058 193.157 162.785 193.294L162.251 193.56V146.32L162.785 146.587C162.921 146.655 163.07 146.688 163.218 146.688C163.366 146.688 163.515 146.655 163.651 146.587L165.156 145.834L166.658 146.587C166.932 146.723 167.253 146.723 167.526 146.587L168.063 146.318V193.561L167.527 193.294C167.255 193.157 166.933 193.157 166.661 193.293Z" fill="white"/>
</g>
<g opacity="0.2" clip-path="url(#clip14)">
<path d="M623.584 756C623.509 756 623.434 755.989 623.359 755.967L620.021 754.954C619.82 754.893 619.652 754.752 619.556 754.564C619.461 754.376 619.447 754.157 619.518 753.958L628.647 728.172L627.431 726.773C627.293 726.614 627.226 726.407 627.244 726.198C627.263 725.989 627.366 725.797 627.529 725.665L628.541 724.852C629.086 724.414 629.333 723.691 629.17 723.011L628.772 721.344L627.004 720.925C626.322 720.762 625.601 721.012 625.164 721.557L624.353 722.57C624.222 722.734 624.03 722.837 623.821 722.856C623.613 722.877 623.404 722.809 623.246 722.671L621.834 721.448L596.067 730.621C595.868 730.692 595.649 730.678 595.461 730.583C595.273 730.488 595.131 730.321 595.07 730.119L594.051 726.782C593.928 726.379 594.151 725.952 594.552 725.823L621.173 717.233C621.174 717.232 621.175 717.232 621.175 717.232C621.176 717.232 621.177 717.231 621.178 717.231C621.178 717.231 621.179 717.231 621.179 717.231C621.219 717.218 621.26 717.209 621.301 717.203L626.66 716.335C627.124 716.259 627.57 716.109 627.985 715.888L632.606 713.425C635.535 708.436 639.338 702.11 641.174 699.688C644.417 695.412 647.364 694.115 647.487 694.062C647.789 693.934 648.138 694.008 648.359 694.249C648.581 694.49 648.626 694.844 648.473 695.133L641.196 708.848L654.848 701.573C655.138 701.419 655.492 701.464 655.733 701.685C655.974 701.906 656.049 702.256 655.921 702.556C655.868 702.68 654.577 705.629 650.307 708.88C647.906 710.707 641.594 714.516 636.637 717.439L634.205 722.022C633.985 722.437 633.835 722.883 633.761 723.347L632.9 728.722C632.886 728.807 632.858 728.889 632.819 728.963L624.318 755.464C624.213 755.791 623.91 756 623.584 756ZM621.242 753.711L623.08 754.269L631.133 729.165L630.02 728.916L621.242 753.711ZM595.749 727.059L596.31 728.896L621.095 720.072L620.844 718.96L595.749 727.059ZM629.95 727.318L631.506 727.667L632.237 723.103C632.338 722.471 632.541 721.864 632.842 721.298L635.3 716.666C635.314 716.622 635.332 716.578 635.355 716.536L638.629 710.365C638.651 710.323 638.677 710.284 638.706 710.247L645.66 697.142C644.718 697.938 643.583 699.066 642.404 700.62C639.532 704.407 631.407 718.544 630.195 720.66L630.671 722.652C630.972 723.909 630.515 725.245 629.507 726.055L629.121 726.365L629.95 727.318ZM622.696 720.152L623.65 720.979L623.96 720.592C624.768 719.583 626.103 719.123 627.361 719.423L628.901 719.788C629.262 719.158 630.066 717.758 631.103 715.975L628.711 717.25C628.147 717.551 627.54 717.756 626.907 717.858L622.344 718.597L622.696 720.152ZM639.902 711.287L638.025 714.823C642.48 712.172 647.365 709.18 649.372 707.652C650.924 706.47 652.051 705.333 652.845 704.39L639.902 711.287Z" fill="white"/>
</g>
<g opacity="0.2" clip-path="url(#clip15)">
<path d="M629.584 62C629.509 62 629.434 61.9892 629.359 61.9666L626.021 60.9541C625.82 60.893 625.652 60.7519 625.556 60.5636C625.461 60.3756 625.447 60.1567 625.518 59.9579L634.647 34.1717L633.431 32.773C633.293 32.6143 633.226 32.4069 633.244 32.1979C633.263 31.9889 633.366 31.7966 633.529 31.6651L634.541 30.852C635.086 30.4139 635.333 29.6913 635.17 29.0109L634.772 27.3439L633.004 26.9247C632.322 26.7623 631.601 27.0117 631.164 27.5572L630.353 28.5701C630.222 28.734 630.03 28.8371 629.821 28.8562C629.613 28.8772 629.404 28.8087 629.246 28.671L627.834 27.4476L602.067 36.6209C601.868 36.6916 601.649 36.678 601.461 36.5833C601.273 36.4882 601.131 36.3206 601.07 36.119L600.051 32.7823C599.928 32.3791 600.151 31.9522 600.552 31.8228L627.173 23.2327C627.174 23.2323 627.175 23.2323 627.175 23.2317C627.176 23.2317 627.177 23.2311 627.178 23.2311C627.178 23.2308 627.179 23.2308 627.179 23.2308C627.219 23.2181 627.26 23.2089 627.301 23.203L632.66 22.3347C633.124 22.2593 633.57 22.1093 633.985 21.888L638.606 19.4255C641.535 14.4363 645.338 8.1095 647.174 5.68776C650.417 1.41166 653.364 0.115436 653.487 0.0623403C653.789 -0.0663871 654.138 0.00831798 654.359 0.248794C654.581 0.489579 654.626 0.844274 654.473 1.13322L647.196 14.8478L660.848 7.57298C661.138 7.41894 661.492 7.46401 661.733 7.68504C661.974 7.90638 662.049 8.25583 661.921 8.5565C661.868 8.68029 660.577 11.6293 656.307 14.8799C653.906 16.7071 647.594 20.5161 642.637 23.4392L640.205 28.0215C639.985 28.437 639.835 28.8831 639.761 29.3474L638.9 34.7218C638.886 34.807 638.858 34.8885 638.819 34.9629L630.318 61.4638C630.213 61.791 629.91 62 629.584 62ZM627.242 59.7113L629.08 60.2691L637.133 35.1654L636.02 34.916L627.242 59.7113ZM601.749 33.0585L602.31 34.8959L627.095 26.0724L626.844 24.9604L601.749 33.0585ZM635.95 33.3182L637.506 33.667L638.237 29.1035C638.338 28.4713 638.541 27.8638 638.842 27.2979L641.3 22.6662C641.314 22.6217 641.332 22.5782 641.355 22.5356L644.629 16.3653C644.651 16.3234 644.677 16.2838 644.706 16.2468L651.66 3.14161C650.718 3.93775 649.583 5.06573 648.404 6.62034C645.532 10.4068 637.407 24.5443 636.195 26.6604L636.671 28.6516C636.972 29.9092 636.515 31.2452 635.507 32.055L635.121 32.3652L635.95 33.3182ZM628.696 26.1523L629.65 26.979L629.96 26.5922C630.768 25.5828 632.103 25.1234 633.361 25.4226L634.901 25.7884C635.262 25.158 636.066 23.7584 637.103 21.9753L634.711 23.2496C634.147 23.5509 633.54 23.7556 632.907 23.8581L628.344 24.5971L628.696 26.1523ZM645.902 17.2865L644.025 20.8233C648.48 18.1719 653.365 15.1796 655.372 13.6522C656.924 12.4705 658.051 11.3332 658.845 10.3896L645.902 17.2865Z" fill="white"/>
</g>
<defs>
<clipPath id="clip0">
<rect width="62" height="62" fill="white" transform="translate(57 297)"/>
</clipPath>
<clipPath id="clip1">
<rect width="62" height="62" fill="white" transform="translate(999 566)"/>
</clipPath>
<clipPath id="clip2">
<rect width="62" height="62" fill="white" transform="translate(409 121)"/>
</clipPath>
<clipPath id="clip3">
<rect width="62" height="62" fill="white" transform="translate(1192 753)"/>
</clipPath>
<clipPath id="clip4">
<rect width="62" height="62" fill="white" transform="translate(744 760)"/>
</clipPath>
<clipPath id="clip5">
<rect width="62" height="62" fill="white" transform="translate(1033 141)"/>
</clipPath>
<clipPath id="clip6">
<rect width="62" height="62" fill="white" transform="translate(115 765)"/>
</clipPath>
<clipPath id="clip7">
<rect width="62" height="62" fill="white" transform="translate(157 445)"/>
</clipPath>
<clipPath id="clip8">
<rect width="62" height="62" fill="white" transform="translate(1147 479)"/>
</clipPath>
<clipPath id="clip9">
<rect width="62" height="62" fill="white" transform="translate(354 703)"/>
</clipPath>
<clipPath id="clip10">
<rect width="62" height="62" fill="white" transform="translate(7 594)"/>
</clipPath>
<clipPath id="clip11">
<rect width="62" height="62" fill="white" transform="translate(1078 656)"/>
</clipPath>
<clipPath id="clip12">
<rect width="62" height="62" fill="white" transform="translate(1161 257)"/>
</clipPath>
<clipPath id="clip13">
<rect width="62" height="62" fill="white" transform="translate(108 137)"/>
</clipPath>
<clipPath id="clip14">
<rect width="62" height="62" fill="white" transform="translate(594 694)"/>
</clipPath>
<clipPath id="clip15">
<rect width="62" height="62" fill="white" transform="translate(600)"/>
</clipPath>
</defs>
</svg>
