<svg width="15" height="15" viewBox="0 0 15 15" fill="none" xmlns="http://www.w3.org/2000/svg">
<path d="M13.2662 8.00486C13.1448 8.00486 13.0465 8.10324 13.0465 8.22459V9.79557C13.0465 10.4153 12.5423 10.9194 11.9226 10.9194H8.99385C8.74219 10.9194 8.50746 11.0547 8.38134 11.2725L6.89062 13.8462C6.84612 13.923 6.77253 13.9313 6.74294 13.9313C6.71335 13.9313 6.63976 13.923 6.59522 13.8462L5.10451 11.2725C4.97836 11.0547 4.74366 10.9194 4.492 10.9194H1.56328C0.943594 10.9194 0.439453 10.4153 0.439453 9.7956V3.35088C0.439453 2.73119 0.943594 2.22705 1.56328 2.22705H4.53753C4.65888 2.22705 4.75726 2.12867 4.75726 2.00732C4.75726 1.88598 4.65888 1.7876 4.53753 1.7876H1.56328C0.701309 1.78754 0 2.48885 0 3.35085V9.79557C0 10.6576 0.701309 11.3589 1.56328 11.3589H4.49203C4.58745 11.3589 4.67643 11.4102 4.72427 11.4927L6.21498 14.0664C6.32537 14.257 6.52271 14.3708 6.74294 14.3707C6.96316 14.3707 7.16051 14.257 7.27087 14.0664L8.76161 11.4927C8.80942 11.4102 8.8984 11.3589 8.99385 11.3589H11.9226C12.7846 11.3589 13.4859 10.6575 13.4859 9.79557V8.22459C13.4859 8.10324 13.3875 8.00486 13.2662 8.00486Z" fill="white"/>
<path d="M14.0878 0.628418H6.25818C5.751 0.628418 5.3457 1.04232 5.3457 1.5409V6.51164C5.3457 7.01148 5.75229 7.42412 6.25818 7.42412H14.0878C14.5937 7.42412 15.0003 7.01154 15.0003 6.51164V1.5409C15.0003 1.03983 14.5924 0.628418 14.0878 0.628418ZM6.25818 1.06787H14.0878C14.1207 1.06787 14.1528 1.07127 14.1838 1.07772L10.5556 4.31552C10.3375 4.51014 10.0085 4.5102 9.79039 4.31552L6.16218 1.07772C6.19317 1.0713 6.22528 1.06787 6.25818 1.06787ZM5.78516 6.51164V1.5409C5.78516 1.47753 5.79787 1.41715 5.82058 1.36187L9.02431 4.22086L5.78521 6.51296C5.78521 6.51252 5.78516 6.51208 5.78516 6.51164ZM14.0878 6.98464H6.25818C6.16033 6.98464 6.06934 6.95479 5.99381 6.90369L9.36078 4.52112L9.4978 4.64338C9.8827 4.98686 10.4633 4.98692 10.8482 4.64338L10.9852 4.52112L14.3522 6.90369C14.2767 6.95479 14.1857 6.98464 14.0878 6.98464ZM14.5609 6.51164C14.5609 6.51208 14.5608 6.51252 14.5608 6.51299L11.3217 4.22089L14.5254 1.36187C14.5481 1.41715 14.5609 1.47753 14.5609 1.5409V6.51164Z" fill="white"/>
</svg>
