<svg width="15" height="10" viewBox="0 0 15 10" fill="none" xmlns="http://www.w3.org/2000/svg">
<path opacity="0.1" d="M14.3177 3.86626C14.3177 5.05166 13.8731 6.18768 12.9841 7.2743C12.1074 8.36092 11.1319 9.14502 10.0576 9.62659L9.70569 8.88571C11.0146 8.13248 11.9283 7.2496 12.4469 6.23707C12.7062 5.71845 12.8359 5.24306 12.8359 4.81088C12.8359 4.67505 12.7865 4.57009 12.6877 4.49601C12.6013 4.40957 12.4778 4.36635 12.3173 4.36635C11.5888 4.45279 11.1689 4.49601 11.0578 4.49601C10.5639 4.49601 10.0947 4.32931 9.65013 3.99591C9.21795 3.66252 9.00186 3.17477 9.00186 2.53268C9.00186 1.91528 9.19943 1.40284 9.59456 0.995355C9.9897 0.575524 10.5515 0.365609 11.2801 0.365609C12.1321 0.365609 12.8483 0.699004 13.4286 1.36579C14.0213 2.02024 14.3177 2.85373 14.3177 3.86626ZM5.63086 3.71808C5.63086 5.07636 5.17399 6.28646 4.26024 7.34839C3.35883 8.39796 2.38952 9.15737 1.35229 9.62659L1.01889 8.88571C1.8956 8.33005 2.6303 7.71883 3.22301 7.05204C3.82806 6.3729 4.13058 5.64437 4.13058 4.86644C4.13058 4.73062 4.09354 4.61331 4.01945 4.51453C3.95771 4.41574 3.83423 4.36635 3.64901 4.36635C2.90813 4.45279 2.47595 4.49601 2.35247 4.49601C1.94499 4.49601 1.55603 4.38487 1.18559 4.16261C0.605236 3.80452 0.315059 3.24886 0.315059 2.49563C0.315059 1.97702 0.500279 1.49545 0.870718 1.05092C1.24116 0.594046 1.81534 0.365609 2.59326 0.365609C3.48231 0.365609 4.21084 0.705178 4.77885 1.38432C5.34686 2.06346 5.63086 2.84138 5.63086 3.71808Z" fill="#5C5C5C"/>
</svg>
