<svg width="12" height="16" viewBox="0 0 12 16" fill="none" xmlns="http://www.w3.org/2000/svg">
<path d="M5.94978 0C2.7746 0 0.191406 2.58319 0.191406 5.75835C0.191406 9.69881 5.34459 15.4836 5.56399 15.728C5.77007 15.9575 6.12987 15.9571 6.33558 15.728C6.55498 15.4836 11.7082 9.69881 11.7082 5.75835C11.7081 2.58319 9.12494 0 5.94978 0ZM5.94978 8.65553C4.35227 8.65553 3.05263 7.35586 3.05263 5.75835C3.05263 4.16083 4.3523 2.86119 5.94978 2.86119C7.54727 2.86119 8.84691 4.16086 8.84691 5.75838C8.84691 7.35589 7.54727 8.65553 5.94978 8.65553Z" fill="#888"/>
</svg>
