<?xml version="1.0" encoding="UTF-8"?>
<!DOCTYPE svg PUBLIC "-//W3C//DTD SVG 1.0//EN" "http://www.w3.org/TR/2001/REC-SVG-20010904/DTD/svg10.dtd">
<!-- Creator: CorelDRAW X8 -->
<svg xmlns="http://www.w3.org/2000/svg" xml:space="preserve" width="751.89mm" height="966.818mm" version="1.0" style="shape-rendering:geometricPrecision; text-rendering:geometricPrecision; image-rendering:optimizeQuality; fill-rule:evenodd; clip-rule:evenodd"
viewBox="0 0 26635 34248"
 xmlns:xlink="http://www.w3.org/1999/xlink">
 <defs>
  <style type="text/css">
   <![CDATA[
    .fil1 {fill:#FFF}
    .fil0 {fill:#574497}
   ]]>
  </style>
 </defs>
 <g id="Layer_x0020_1">
  <metadata id="CorelCorpID_0Corel-Layer"/>
  <g id="_1970928203952">
   <path class="fil0" d="M6838 27395l3255 -3423c-277,-430 -800,-907 -1122,-1249 -398,-423 -745,-793 -1143,-1216 -791,-842 -1533,-1627 -2323,-2470 -401,-427 -738,-629 -898,-1476 -139,-732 82,-1389 432,-1862 504,-682 8067,-8617 9203,-9824 427,-453 2088,-2107 2293,-2490l-3168 -3385 884 944c-383,-142 -811,-185 -1248,-104 -295,55 -573,163 -822,315 -699,742 -1481,1610 -1727,1872l-5755 6118c-959,1019 -1896,2085 -2877,3060 -2123,2111 -2459,6110 -647,9003 591,942 3290,3689 4209,4664 423,448 1024,1173 1454,1523z"/>
   <path class="fil1" d="M10123 17099c392,522 1096,1185 1575,1694 283,301 514,546 798,847 274,291 533,683 865,853l6362 -6757c411,347 1910,1924 2115,2387 680,1535 -241,2437 -968,3209 -567,603 -4126,4303 -4305,4627l3174 3382c337,-145 1715,-1742 2083,-2133 698,-743 1347,-1432 2045,-2174 1562,-1659 2745,-2967 2768,-5861 10,-1310 -309,-2501 -827,-3502 -756,-1459 -2772,-3391 -3916,-4608l-2062 -2227c-368,163 -7658,8050 -8520,8968 -326,347 -957,943 -1187,1295z"/>
   <path class="fil0" d="M10074 30792c142,282 2926,3223 3215,3456l3249 -3424 -2987 -3238c-174,-170 -53,-92 -260,-186l-3217 3392z"/>
  </g>
 </g>
</svg>
