<svg width="21" height="21" viewBox="0 0 21 21" fill="none" xmlns="http://www.w3.org/2000/svg">
<path d="M15.171 10.1773H11.1107L12.0768 11.8854H15.171V10.1773ZM15.269 17.4718C15.2317 17.1918 15.2037 16.9164 15.185 16.6457C15.1757 16.3657 15.171 16.1044 15.171 15.8617V13.4395H12.9588L15.269 17.4718ZM9.33263 11.8854L8.36657 10.1773H5.16038V11.8854H9.33263ZM5.07637 4.38099C5.10437 4.65167 5.12304 4.92235 5.13237 5.19304C5.15104 5.46372 5.16038 5.71107 5.16038 5.93508V8.60925H7.47052L5.07637 4.38099ZM17.6071 10.1773V11.8854H20.0433V12.7115C20.0433 12.8982 19.9686 13.0662 19.8193 13.2155C19.6699 13.3649 19.4832 13.4395 19.2592 13.4395H17.6071V21H15.255C15.0216 21 14.8256 20.958 14.667 20.874C14.5176 20.79 14.3636 20.6546 14.2049 20.468L10.2147 13.4395H5.16038V21H2.71023V13.4395H0.274078V11.8854H2.71023V10.1773H0.274078V9.33729C0.274078 9.15061 0.348749 8.9826 0.498091 8.83326C0.647434 8.68392 0.838779 8.60925 1.07213 8.60925H2.71023V0.894776H5.09037C5.35172 0.894776 5.54773 0.927445 5.67841 0.992783C5.80908 1.04879 5.95376 1.18413 6.11243 1.39881L10.2147 8.60925H15.171V0.894776H17.6071V8.60925H20.0433V10.1773H17.6071Z" fill="white"/>
</svg>
