<svg width="15" height="10" viewBox="0 0 15 10" fill="none" xmlns="http://www.w3.org/2000/svg">
<path opacity="0.1" d="M0.0187077 6.1815C0.0187077 5.00845 0.457061 3.87861 1.33377 2.79199C2.22282 1.70536 3.21066 0.915094 4.29728 0.421175L4.6492 1.16205C3.78484 1.65597 3.04396 2.27337 2.42656 3.01425C1.82151 3.74278 1.51899 4.48366 1.51899 5.23688C1.51899 5.38506 1.5622 5.49619 1.64864 5.57028C1.74742 5.64437 1.8709 5.68141 2.01908 5.68141C2.8217 5.59498 3.25388 5.55176 3.31562 5.55176C3.7231 5.55176 4.16145 5.69993 4.63068 5.99628C5.11225 6.29264 5.35303 6.7989 5.35303 7.51508C5.35303 8.12014 5.15546 8.63258 4.76033 9.05241C4.36519 9.47224 3.80336 9.68215 3.07483 9.68215C2.22282 9.68215 1.50046 9.35493 0.907762 8.70049C0.315059 8.0337 0.0187077 7.19404 0.0187077 6.1815ZM8.72403 6.32968C8.72403 5.00845 9.16856 3.81687 10.0576 2.75494C10.959 1.68067 11.9407 0.902746 13.0026 0.421175L13.3545 1.16205C12.4902 1.65597 11.7493 2.2672 11.1319 2.99573C10.5268 3.71191 10.2243 4.44661 10.2243 5.19984C10.2243 5.33567 10.2614 5.45297 10.3354 5.55176C10.4095 5.63819 10.5392 5.68141 10.7244 5.68141C11.5147 5.59498 11.9468 5.55176 12.0209 5.55176C12.4778 5.55176 12.9285 5.71845 13.373 6.05185C13.8299 6.3729 14.0584 6.85447 14.0584 7.49656C14.0584 8.00283 13.8793 8.49675 13.5212 8.97832C13.1755 9.44754 12.5889 9.68215 11.7616 9.68215C10.8726 9.68215 10.144 9.34258 9.57604 8.66345C9.00803 7.97196 8.72403 7.19404 8.72403 6.32968Z" fill="#5C5C5C"/>
</svg>
