<svg width="14" height="18" viewBox="0 0 14 18" fill="none" xmlns="http://www.w3.org/2000/svg">
<path d="M11.314 3.72549C10.5101 3.72549 9.86301 3.05882 9.86301 2.27451V0H0.941445C0.666935 0 0.431641 0.235294 0.431641 0.509804V17.4902C0.431641 17.7647 0.666935 18 0.941445 18H13.0787C13.3532 18 13.5689 17.7647 13.5689 17.4902V3.72549H11.314ZM4.66693 9.07843C4.45125 9.27451 4.13752 9.35294 3.68654 9.35294H3.03948V10.3529C3.03948 10.9412 2.3336 10.9412 2.3336 10.3529V7.64706C2.3336 7.33333 2.47086 7.21569 2.78458 7.21569C3.17674 7.21569 4.00027 7.19608 4.31399 7.27451C5.17674 7.5098 5.17674 8.66667 4.66693 9.07843ZM8.54929 9.52941C8.43164 10.1373 8.03948 10.5882 7.41203 10.6863L6.05909 10.7255C5.68654 10.7255 5.60811 10.5686 5.60811 10.2157V7.64706C5.60811 7.33333 5.74537 7.21569 6.03948 7.21569C6.47086 7.21569 7.21595 7.17647 7.5885 7.27451C8.49046 7.5098 8.74537 8.64706 8.54929 9.52941ZM11.5689 7.68627C11.5101 7.7451 11.4316 7.76471 11.314 7.76471H9.92184V8.66667H11.0983C11.5297 8.66667 11.5297 9.19608 11.0983 9.19608H9.92184V10.3529C9.92184 10.8627 9.47086 10.8627 9.31399 10.6863C9.25517 10.6078 9.21595 10.4902 9.21595 10.3529V7.64706C9.21595 7.33333 9.35321 7.21569 9.64733 7.21569H11.314C11.7062 7.21569 11.7061 7.56863 11.5689 7.68627Z" fill="#546380"/>
<path d="M3.52926 7.74512H3.05867V8.82355H3.03906C3.54887 8.82355 4.29396 8.92159 4.29396 8.27453C4.29396 7.84316 3.99985 7.74512 3.52926 7.74512Z" fill="#546380"/>
<path d="M6.78406 7.80371H6.31348V10.1763C6.60759 10.1763 7.09779 10.1959 7.33308 10.1174C7.99975 9.88214 7.96053 8.58802 7.72524 8.19587C7.50955 7.84293 7.19583 7.80371 6.78406 7.80371Z" fill="#546380"/>
<path d="M11.3139 2.8633H12.961L10.7061 0.608398V2.25546C10.7061 2.6084 10.9806 2.8633 11.3139 2.8633Z" fill="#546380"/>
</svg>
