<svg width="16" height="16" viewBox="0 0 16 16" fill="none" xmlns="http://www.w3.org/2000/svg">
<path d="M6.58393 9.31586C5.0663 7.79823 4.72363 6.2806 4.64632 5.67256C4.62472 5.50444 4.68257 5.33584 4.80285 5.2164L6.03099 3.98881C6.21165 3.80826 6.24371 3.52688 6.1083 3.31032L4.15287 0.273967C4.00306 0.0341643 3.69545 -0.0523829 3.44258 0.0741202L0.303425 1.55255C0.0989341 1.65324 -0.0213446 1.87051 0.0018731 2.09726C0.166356 3.65984 0.847589 7.50106 4.62247 11.2762C8.39735 15.0514 12.238 15.7323 13.8014 15.8968C14.0282 15.92 14.2455 15.7998 14.3461 15.5953L15.8246 12.4561C15.9506 12.2038 15.8646 11.897 15.6258 11.7469L12.5895 9.79204C12.373 9.65648 12.0917 9.68831 11.911 9.86879L10.6834 11.0969C10.5639 11.2172 10.3953 11.2751 10.2272 11.2535C9.61918 11.1762 8.10155 10.8335 6.58393 9.31586Z" fill="white"/>
<path d="M11.2397 6.30538V7.38631C11.2397 7.49126 11.1798 7.58698 11.0854 7.63284C10.991 7.6787 10.8787 7.66664 10.7962 7.60178L7.67595 5.15016C7.60987 5.09819 7.57129 5.01876 7.57129 4.93469C7.57129 4.85062 7.60987 4.77119 7.67595 4.71922L10.7962 2.2676C10.8787 2.20275 10.991 2.19068 11.0854 2.23654C11.1798 2.2824 11.2397 2.37813 11.2397 2.48308V3.56674C11.2397 3.71676 11.3603 3.83893 11.5103 3.84088C12.6949 3.85596 15.2997 4.04868 15.8118 6.49508C15.8333 6.60792 15.7821 6.72216 15.6836 6.78128C15.5851 6.8404 15.4602 6.83187 15.3707 6.7599C14.9329 6.40243 14.1686 6.03124 12.8846 6.03124H11.5139C11.3625 6.03124 11.2397 6.15398 11.2397 6.30538Z" fill="white"/>
</svg>
