<svg width="21" height="21" viewBox="0 0 21 21" fill="none" xmlns="http://www.w3.org/2000/svg">
<path d="M20.0064 20.2577L14.3599 14.3855C15.8001 12.9411 16.6924 10.9498 16.6924 8.75379C16.6924 4.35333 13.1127 0.773682 8.71229 0.773682C4.31183 0.773682 0.732178 4.35333 0.732178 8.75379C0.732178 13.1543 4.31183 16.7339 8.71229 16.7339C10.6439 16.7339 12.4166 16.0434 13.7983 14.8977L19.4585 20.7844C19.5329 20.8623 19.6325 20.901 19.7324 20.901C19.8274 20.901 19.9221 20.8657 19.9958 20.795C20.147 20.6495 20.1516 20.4089 20.0064 20.2577ZM8.71229 15.9739C4.73097 15.9739 1.49219 12.7351 1.49219 8.75379C1.49219 4.77248 4.73097 1.53369 8.71229 1.53369C12.6936 1.53369 15.9324 4.77248 15.9324 8.75379C15.9324 12.7351 12.6932 15.9739 8.71229 15.9739Z" fill="#5C5C5C"/>
</svg>
