<svg width="32" height="32" viewBox="0 0 32 32" fill="none" xmlns="http://www.w3.org/2000/svg">
<g clip-path="url(#clip0)">
<path d="M19.9993 8.66699C19.2633 8.66699 18.666 8.06966 18.666 7.33366V5.33366H13.3327V7.33366C13.3327 8.06966 12.7353 8.66699 11.9993 8.66699C11.2633 8.66699 10.666 8.06966 10.666 7.33366V5.33366C10.666 3.86299 11.862 2.66699 13.3327 2.66699H18.666C20.1367 2.66699 21.3327 3.86299 21.3327 5.33366V7.33366C21.3327 8.06966 20.7353 8.66699 19.9993 8.66699Z" fill="#FF8515"/>
<path d="M16.9467 20.5065C16.7067 20.5998 16.36 20.6665 16 20.6665C15.64 20.6665 15.2933 20.5998 14.9733 20.4798L0 15.4932V25.6665C0 27.6932 1.64 29.3332 3.66667 29.3332H28.3333C30.36 29.3332 32 27.6932 32 25.6665V15.4932L16.9467 20.5065Z" fill="#FF8515"/>
<path d="M32 10.3337V13.387L16.32 18.6137C16.2133 18.6537 16.1067 18.667 16 18.667C15.8933 18.667 15.7867 18.6537 15.68 18.6137L0 13.387V10.3337C0 8.30699 1.64 6.66699 3.66667 6.66699H28.3333C30.36 6.66699 32 8.30699 32 10.3337Z" fill="#FF8515"/>
</g>
<defs>
<clipPath id="clip0">
<rect width="32" height="32" fill="white"/>
</clipPath>
</defs>
</svg>
