<svg width="49" height="49" viewBox="0 0 49 49" fill="none" xmlns="http://www.w3.org/2000/svg">
<path d="M24.6675 0C11.25 0 0.334961 10.915 0.334961 24.3326C0.334961 37.7501 11.25 48.6651 24.6675 48.6651C38.085 48.6651 49.0001 37.7501 49.0001 24.3326C49.0001 10.915 38.085 0 24.6675 0ZM37.0001 19.1761L23.8199 32.356C23.4244 32.7514 22.9054 32.9505 22.3863 32.9505C21.8673 32.9505 21.3482 32.7514 20.9528 32.356L14.3629 25.7661C13.5698 24.9734 13.5698 23.6917 14.3629 22.899C15.1556 22.106 16.4369 22.106 17.2299 22.899L22.3863 28.0554L34.1331 16.3091C34.9258 15.516 36.2071 15.516 37.0001 16.3091C37.7928 17.1018 37.7928 18.3831 37.0001 19.1761Z" fill="#43CEA2"/>
</svg>
