<?xml version="1.0" standalone="no"?>
<!DOCTYPE svg PUBLIC "-//W3C//DTD SVG 20010904//EN"
 "http://www.w3.org/TR/2001/REC-SVG-20010904/DTD/svg10.dtd">
<svg version="1.0" xmlns="http://www.w3.org/2000/svg"
 width="3654.000000pt" height="3654.000000pt" viewBox="0 0 3654.000000 3654.000000"
 preserveAspectRatio="xMidYMid meet">
<metadata>
Created by potrace 1.11, written by Peter Selinger 2001-2013
</metadata>
<g transform="translate(0.000000,3654.000000) scale(0.100000,-0.100000)"
fill="#000000" stroke="none">
<path d="M18278 35685 c-2 -2 -48 -6 -102 -9 -55 -4 -102 -9 -105 -11 -3 -2
-28 -6 -56 -9 -69 -8 -81 -10 -255 -51 -81 -19 -285 -87 -345 -115 -11 -5 -64
-29 -117 -54 -112 -51 -236 -122 -258 -146 -8 -10 -69 -75 -135 -145 -66 -70
-131 -139 -144 -154 -32 -35 -231 -249 -309 -333 -35 -37 -73 -78 -84 -90 -11
-13 -59 -65 -106 -117 -48 -51 -94 -101 -102 -111 -8 -9 -62 -68 -120 -131
-58 -62 -134 -145 -170 -184 -35 -38 -79 -86 -97 -105 -17 -19 -41 -45 -51
-58 -11 -12 -49 -53 -84 -91 -34 -37 -83 -90 -108 -117 -25 -27 -94 -103 -155
-169 -60 -66 -114 -125 -120 -131 -11 -12 -236 -252 -295 -314 -19 -20 -91
-97 -160 -170 -170 -181 -177 -189 -326 -346 -72 -77 -162 -172 -200 -213 -38
-40 -87 -93 -109 -116 -22 -23 -89 -95 -150 -159 -60 -65 -128 -137 -150 -160
-22 -23 -76 -80 -120 -127 -44 -47 -139 -148 -212 -225 -72 -76 -146 -155
-163 -174 -18 -19 -90 -96 -160 -170 -70 -74 -142 -151 -160 -170 -18 -19 -90
-96 -160 -170 -70 -74 -144 -153 -165 -175 -20 -22 -92 -98 -160 -170 -67 -71
-137 -146 -155 -165 -18 -19 -85 -91 -150 -160 -64 -69 -133 -141 -151 -161
-71 -76 -266 -283 -314 -333 -27 -29 -104 -110 -170 -181 -66 -70 -136 -145
-155 -165 -33 -35 -110 -117 -264 -280 -156 -166 -336 -357 -366 -390 -18 -19
-95 -101 -172 -181 -76 -81 -148 -157 -159 -170 -18 -21 -212 -226 -385 -409
-45 -47 -93 -98 -107 -113 -13 -15 -79 -85 -145 -155 -65 -70 -136 -145 -157
-167 -54 -59 -277 -295 -375 -399 -47 -49 -96 -101 -110 -116 -14 -15 -80 -85
-148 -157 -68 -72 -131 -140 -140 -151 -10 -11 -74 -80 -142 -152 -68 -72
-132 -141 -141 -151 -10 -11 -62 -68 -116 -126 -54 -58 -109 -118 -123 -133
-14 -15 -72 -78 -130 -140 -58 -62 -112 -120 -120 -130 -8 -10 -58 -64 -110
-120 -52 -57 -99 -108 -105 -114 -38 -42 -239 -260 -277 -301 -25 -27 -63 -69
-85 -91 -21 -23 -75 -82 -120 -131 -46 -50 -101 -110 -124 -134 -23 -24 -69
-74 -103 -110 -88 -95 -307 -328 -406 -433 -150 -159 -338 -353 -617 -636
-368 -374 -446 -455 -544 -574 -13 -16 -38 -46 -55 -65 -41 -49 -158 -201
-220 -286 -247 -341 -454 -698 -660 -1140 -85 -183 -253 -620 -299 -775 -7
-25 -36 -124 -64 -220 -29 -96 -57 -195 -62 -220 -6 -25 -12 -52 -15 -60 -4
-16 -42 -173 -49 -205 -3 -11 -9 -42 -15 -70 -5 -27 -12 -61 -15 -75 -13 -64
-36 -188 -41 -220 -2 -19 -11 -71 -19 -115 -13 -71 -48 -335 -60 -455 -17
-170 -18 -189 -32 -415 -15 -250 -8 -914 11 -1115 2 -19 7 -71 10 -115 4 -44
8 -96 11 -115 2 -19 6 -62 10 -95 5 -53 28 -226 40 -310 2 -16 14 -86 25 -155
12 -69 23 -136 25 -150 2 -14 18 -92 35 -175 18 -82 34 -159 36 -170 11 -59
104 -408 134 -505 11 -36 20 -66 20 -68 0 -1 14 -48 32 -105 18 -56 33 -104
33 -107 1 -3 4 -12 7 -20 4 -8 18 -51 33 -95 62 -181 194 -515 265 -670 126
-273 310 -626 421 -810 10 -16 25 -41 33 -55 12 -22 116 -182 158 -244 28 -40
244 -325 302 -396 58 -72 306 -370 316 -380 3 -3 46 -52 95 -110 83 -97 402
-459 415 -470 3 -3 39 -43 80 -90 41 -46 84 -94 95 -105 11 -12 49 -54 85 -94
68 -76 82 -92 165 -182 28 -30 102 -110 165 -179 63 -69 136 -147 161 -175 26
-27 61 -66 79 -85 18 -19 62 -67 99 -105 36 -39 122 -131 191 -204 69 -73 143
-152 165 -176 22 -23 78 -82 124 -131 46 -49 157 -165 246 -259 89 -93 179
-189 201 -211 42 -45 319 -336 394 -414 25 -26 124 -129 220 -230 96 -101 200
-209 230 -240 78 -81 474 -498 607 -638 18 -19 65 -71 105 -115 40 -44 84 -92
98 -107 71 -77 103 -113 180 -200 76 -85 146 -162 176 -194 5 -6 34 -38 63
-71 59 -65 210 -229 336 -363 117 -125 329 -334 415 -411 41 -36 88 -78 105
-93 l29 -27 51 52 c64 67 379 398 425 447 19 20 105 110 190 200 85 90 169
177 185 195 33 34 316 331 461 484 50 53 107 113 126 134 40 42 336 353 413
433 28 29 115 121 195 205 80 85 188 199 241 254 53 55 111 116 129 135 18 19
105 112 195 205 89 94 177 186 195 205 18 19 107 113 199 209 239 251 387 407
443 468 l28 29 -71 100 c-96 134 -134 181 -288 358 -72 83 -276 298 -475 501
-256 261 -357 365 -527 545 -188 200 -279 296 -319 340 -35 37 -239 254 -318
338 -47 49 -84 88 -312 332 -69 73 -138 147 -155 165 -50 53 -281 298 -315
335 -18 19 -67 71 -109 115 -101 107 -339 360 -370 393 -20 22 -133 143 -326
347 -16 18 -84 89 -150 160 -66 70 -138 146 -160 170 -74 78 -292 310 -325
345 -61 66 -265 283 -315 335 -27 29 -79 83 -114 121 -159 170 -334 353 -502
524 -261 267 -377 416 -472 605 -41 83 -57 117 -92 200 -39 93 -100 311 -129
460 -42 218 -50 298 -50 520 -1 199 10 330 39 465 3 14 8 39 11 55 3 17 14 64
25 105 11 41 21 82 24 90 34 135 175 453 259 584 20 31 36 59 36 61 0 19 233
318 336 430 11 11 50 56 89 100 38 44 72 82 76 85 3 3 46 50 95 105 49 55 93
105 99 111 5 6 46 50 90 99 44 48 91 100 105 115 14 15 63 69 110 120 47 51
117 127 156 169 39 42 82 88 95 102 28 31 183 199 219 238 14 15 77 83 140
151 63 69 147 158 186 200 39 41 83 88 98 104 14 16 71 77 126 136 55 59 112
120 127 136 14 16 77 83 139 149 62 66 125 134 140 150 15 17 82 89 150 160
67 72 134 144 150 160 15 17 82 89 149 160 68 72 137 146 155 165 27 30 230
245 310 330 68 72 282 299 310 330 18 19 94 100 169 179 75 79 152 161 171
182 19 20 89 95 155 164 66 70 135 144 154 164 18 20 68 72 110 116 42 45 112
119 156 166 121 128 344 364 400 423 121 128 334 353 375 397 25 26 102 107
171 181 70 73 146 153 169 178 23 25 103 110 179 189 75 80 147 156 161 171
14 15 93 98 176 186 83 87 166 175 184 194 18 19 99 105 180 190 81 85 166
175 189 200 23 25 104 110 180 190 76 80 155 163 175 185 21 22 70 74 109 115
317 333 399 419 423 445 15 17 96 102 179 190 84 88 172 181 196 206 45 48
264 279 354 374 234 245 349 367 385 405 23 25 79 83 124 130 44 47 149 157
231 244 83 88 166 176 185 196 19 20 98 103 175 185 77 81 158 167 180 190
220 231 357 375 389 409 21 23 165 171 320 330 154 159 319 328 366 377 149
153 477 493 515 534 21 22 98 103 171 180 72 77 149 159 171 181 150 162 235
254 264 289 19 22 43 49 54 60 11 11 49 54 85 95 36 41 67 77 70 80 23 22 171
203 227 278 112 149 115 120 -28 274 -68 73 -140 149 -159 169 -45 46 -249
265 -273 293 -10 11 -51 55 -90 96 -69 73 -284 302 -361 385 -21 22 -86 92
-146 155 -59 63 -122 131 -140 150 -18 19 -85 91 -149 160 -65 69 -146 156
-182 194 -35 38 -80 86 -99 106 -19 20 -87 92 -150 160 -63 68 -131 140 -150
161 -19 20 -87 92 -150 160 -267 287 -262 282 -342 309 -40 13 -77 25 -83 26
-5 1 -55 14 -110 28 -103 26 -145 34 -205 42 -19 2 -46 6 -60 9 -75 13 -441
30 -452 20z"/>
<path d="M25175 29217 c-130 -95 -784 -745 -1502 -1493 -77 -81 -363 -380
-475 -496 -118 -123 -353 -370 -388 -408 -28 -30 -158 -167 -384 -404 -32 -33
-106 -112 -165 -174 -58 -63 -126 -135 -151 -161 -101 -106 -320 -338 -352
-372 -41 -44 -249 -266 -315 -335 -45 -48 -235 -251 -318 -339 -60 -64 -256
-273 -309 -329 -26 -28 -96 -102 -155 -165 -58 -63 -117 -126 -131 -141 -14
-14 -81 -87 -150 -160 -69 -74 -143 -153 -165 -175 -22 -23 -89 -95 -150 -161
-60 -65 -144 -155 -185 -199 -42 -44 -105 -111 -140 -149 -36 -38 -78 -84 -95
-101 -16 -18 -84 -90 -150 -161 -66 -71 -150 -160 -187 -199 -36 -38 -75 -80
-85 -91 -10 -12 -70 -77 -133 -144 -63 -68 -128 -138 -145 -156 -117 -126
-256 -274 -289 -308 -21 -23 -75 -81 -121 -131 -46 -49 -103 -111 -127 -136
-23 -26 -86 -93 -139 -150 -110 -118 -148 -159 -228 -244 -31 -33 -110 -119
-176 -190 -66 -71 -150 -161 -187 -200 -36 -38 -75 -79 -85 -91 -16 -19 -175
-190 -273 -295 -19 -20 -78 -83 -130 -140 -52 -57 -108 -117 -125 -135 -33
-34 -211 -226 -294 -315 -28 -31 -75 -81 -104 -112 -29 -30 -74 -79 -101 -108
-27 -30 -85 -93 -130 -140 -45 -47 -130 -139 -191 -204 -112 -122 -266 -281
-548 -569 -148 -150 -418 -432 -456 -474 -24 -28 -144 -163 -156 -176 -6 -6
-28 -33 -50 -61 -22 -27 -43 -52 -46 -55 -3 -3 -34 -43 -68 -88 l-61 -84 32
-41 c39 -50 161 -200 168 -207 3 -3 30 -34 60 -70 30 -36 59 -70 65 -76 43
-46 183 -201 198 -218 36 -42 415 -433 796 -822 260 -266 429 -442 767 -803
38 -41 89 -95 114 -121 77 -81 294 -311 319 -339 13 -14 42 -46 65 -71 23 -25
125 -142 226 -260 208 -242 318 -356 435 -451 72 -59 193 -139 209 -139 3 0
33 28 65 63 33 34 79 83 103 108 23 25 94 100 155 165 62 66 138 147 170 181
32 34 108 114 169 180 62 65 134 141 160 169 27 29 97 103 155 165 59 63 129
137 155 165 27 29 99 105 161 170 61 66 135 144 165 175 29 31 105 112 168
180 63 68 131 139 150 159 33 34 96 101 264 280 113 120 364 387 442 470 40
41 89 94 110 116 65 69 256 272 309 328 28 29 109 115 180 191 72 76 141 150
155 165 14 15 88 94 165 176 77 81 172 182 211 224 39 41 88 93 109 115 20 22
69 74 108 115 77 81 300 319 362 385 21 22 72 76 114 120 42 44 141 150 221
235 80 85 179 190 221 235 42 44 88 94 103 110 15 17 62 66 104 110 41 44 110
116 151 160 42 44 137 146 212 225 76 80 154 163 174 185 21 22 93 99 160 170
68 72 140 148 160 170 21 22 95 101 165 175 70 74 143 151 161 171 19 20 97
103 174 184 77 81 147 156 156 167 9 10 76 81 149 158 73 77 141 149 151 161
13 15 22 18 34 12 49 -28 509 -480 821 -808 172 -180 177 -186 294 -314 41
-46 86 -95 100 -110 14 -15 59 -64 100 -110 41 -46 80 -89 85 -95 6 -6 39 -45
75 -86 36 -41 68 -77 71 -80 17 -15 259 -305 354 -425 246 -311 312 -415 400
-637 158 -394 221 -769 192 -1143 -25 -317 -137 -662 -314 -964 -51 -88 -156
-252 -175 -276 -5 -5 -41 -53 -80 -105 -65 -87 -236 -296 -283 -346 -11 -12
-56 -61 -100 -109 -106 -116 -115 -127 -269 -289 -72 -76 -149 -158 -171 -181
-22 -23 -110 -116 -196 -206 -86 -90 -171 -180 -189 -199 -18 -19 -114 -120
-214 -224 -99 -104 -192 -201 -206 -216 -32 -34 -333 -350 -385 -405 -99 -103
-376 -394 -409 -430 -21 -22 -100 -105 -176 -185 -75 -80 -154 -163 -174 -185
-21 -22 -102 -107 -181 -190 -78 -82 -157 -166 -175 -185 -18 -19 -96 -102
-174 -184 -77 -82 -154 -164 -171 -182 -16 -17 -87 -92 -156 -165 -69 -74
-153 -163 -186 -199 -91 -98 -285 -306 -368 -394 -16 -18 -75 -81 -130 -141
-55 -60 -129 -139 -163 -177 -35 -37 -73 -78 -84 -90 -11 -13 -38 -43 -61 -68
-55 -60 -91 -100 -374 -415 -107 -120 -278 -326 -293 -356 -9 -17 -8 -25 7
-42 22 -25 23 -27 193 -207 74 -78 142 -151 151 -161 9 -10 76 -82 150 -161
74 -78 162 -172 195 -208 34 -36 83 -87 109 -115 26 -27 95 -101 153 -164 59
-63 123 -131 142 -151 71 -75 314 -334 475 -506 61 -64 126 -134 145 -154 63
-66 286 -304 314 -335 15 -16 58 -62 94 -100 37 -39 126 -133 197 -209 72 -77
146 -156 165 -176 19 -21 87 -93 150 -160 63 -68 131 -140 150 -161 30 -31
150 -159 304 -323 21 -22 89 -94 150 -160 61 -65 114 -123 118 -129 13 -21
146 72 297 210 99 89 485 474 626 624 106 113 279 299 302 325 10 12 65 72
123 135 58 62 125 136 150 163 25 27 52 57 60 66 8 9 42 47 75 85 33 37 69 78
81 89 11 12 79 86 150 166 71 80 138 154 149 166 17 17 128 139 210 229 11 12
77 83 147 156 69 74 143 152 163 174 21 22 93 99 160 170 68 72 135 144 150
160 15 17 64 68 109 115 44 47 115 122 156 166 41 44 134 142 206 219 72 77
148 158 169 180 20 22 97 103 170 180 72 77 144 154 159 170 15 17 85 91 155
165 71 74 145 153 165 175 21 22 97 103 169 180 73 76 143 151 157 166 14 15
77 83 140 150 161 171 175 187 265 285 44 48 87 95 95 103 9 9 56 61 105 116
50 55 92 102 95 105 20 20 235 268 321 370 172 204 268 326 399 500 68 91 135
181 150 200 15 19 72 103 127 185 368 549 633 1078 822 1643 77 229 165 541
186 661 3 19 8 37 10 41 2 4 7 22 10 41 3 19 10 52 15 74 5 22 12 56 15 75 3
19 8 42 10 50 2 8 7 35 10 60 3 25 8 53 11 63 6 20 7 25 19 122 4 33 9 69 11
80 2 11 6 31 8 45 5 24 10 65 21 165 3 28 10 86 15 130 5 44 12 121 15 170 4
50 8 108 11 130 26 259 25 1119 -1 1349 -4 36 -16 171 -20 233 -2 23 -8 75
-14 115 -5 40 -12 91 -15 113 -7 53 -13 97 -37 240 -27 162 -27 163 -33 183
-3 9 -7 33 -10 52 -7 44 -12 67 -31 155 -9 39 -18 81 -21 95 -13 67 -97 380
-134 500 -23 74 -43 142 -45 150 -7 29 -114 327 -158 440 -124 320 -306 708
-433 927 -151 258 -318 515 -483 743 -219 300 -615 797 -845 1059 -22 26 -62
72 -88 102 -57 67 -82 96 -116 134 -15 17 -65 73 -112 125 -46 52 -102 114
-123 137 -22 23 -51 56 -65 73 -14 17 -44 50 -66 73 -23 24 -86 92 -141 152
-55 61 -109 119 -120 131 -11 11 -51 54 -89 95 -195 210 -477 506 -871 914
-122 127 -255 264 -295 305 -141 147 -429 446 -490 510 -62 64 -238 252 -300
320 -58 63 -244 263 -301 325 -31 33 -69 74 -84 90 -15 17 -70 77 -123 134
-54 57 -108 115 -121 130 -13 14 -71 77 -130 140 -58 62 -114 123 -124 135
-10 11 -46 50 -80 86 -34 36 -111 120 -172 185 -113 124 -218 236 -270 291
-16 17 -73 78 -125 135 -95 103 -355 384 -375 405 -5 6 -46 50 -89 97 -44 48
-84 87 -90 87 -6 0 -24 -11 -41 -23z"/>
<path d="M18175 7238 c-51 -55 -298 -316 -395 -418 -44 -47 -335 -353 -379
-400 -18 -19 -103 -109 -189 -199 -87 -91 -170 -179 -187 -197 -16 -17 -96
-101 -176 -185 -81 -85 -161 -170 -179 -189 -18 -19 -98 -104 -179 -189 -80
-84 -170 -179 -199 -210 -29 -31 -117 -123 -195 -205 -78 -82 -180 -190 -227
-240 -47 -49 -101 -106 -120 -126 -19 -20 -105 -110 -190 -200 -85 -90 -171
-180 -190 -201 -67 -70 -336 -353 -425 -448 -49 -52 -100 -105 -113 -117 l-23
-22 27 -44 c15 -24 39 -57 53 -74 14 -17 34 -42 45 -55 21 -27 118 -141 126
-149 3 -3 30 -34 60 -70 76 -90 102 -120 120 -139 9 -9 47 -52 85 -95 39 -44
79 -89 90 -101 11 -11 36 -39 55 -60 35 -40 345 -380 365 -401 5 -6 47 -51 92
-101 102 -111 113 -123 408 -438 72 -77 141 -151 155 -166 14 -15 80 -85 147
-156 66 -70 138 -146 158 -168 21 -22 111 -116 200 -210 89 -93 177 -186 195
-205 174 -188 923 -948 1014 -1029 22 -19 41 -29 45 -23 5 8 122 132 331 352
133 140 350 368 380 400 19 21 103 109 186 196 83 88 167 175 185 195 19 20
104 110 189 199 85 90 171 180 190 200 19 21 101 106 181 191 80 85 163 172
183 194 21 22 107 112 191 200 84 88 167 176 185 195 18 19 103 109 189 200
87 91 192 201 233 245 42 44 98 103 125 131 66 70 325 343 396 418 212 222
302 319 306 328 2 5 -5 17 -15 27 -16 15 -73 77 -203 220 -42 46 -142 154
-200 216 -65 70 -246 266 -285 310 -15 17 -69 75 -120 130 -52 55 -106 114
-121 130 -15 17 -68 75 -119 129 -50 54 -104 113 -120 130 -15 17 -51 56 -80
86 -28 31 -94 102 -146 159 -52 57 -111 120 -130 141 -19 21 -73 79 -120 130
-47 51 -94 103 -105 115 -11 11 -45 48 -75 81 -46 49 -146 157 -296 320 -16
17 -51 55 -78 85 -27 30 -78 86 -115 125 -36 39 -88 95 -115 125 -28 30 -79
86 -115 124 -36 39 -113 122 -171 184 -58 63 -110 119 -115 125 -6 6 -85 92
-177 191 -276 299 -279 302 -351 335 -36 16 -72 30 -80 30 -8 0 -40 -28 -72
-62z"/>
</g>
</svg>
